<svg width="36" height="36" viewBox="0 0 36 36" fill="none" xmlns="http://www.w3.org/2000/svg">
<path opacity="0.5" d="M24.3281 26.4375H18.4367L16.6364 24.6371C16.4386 24.4394 16.1707 24.3281 15.8906 24.3281H11.6719C11.0889 24.3281 10.6172 24.7999 10.6172 25.3828V34.9453C10.6172 35.5283 11.0889 36 11.6719 36H24.3281C24.9111 36 25.3828 35.5283 25.3828 34.9453V27.4922C25.3828 26.9092 24.9111 26.4375 24.3281 26.4375Z" fill="white"/>
<path d="M12.4175 18.309C12.0056 17.8971 11.3381 17.8971 10.9261 18.309L10.6172 18.618V18C10.6172 16.2553 9.19786 14.8359 7.45312 14.8359C6.87122 14.8359 6.39844 14.3632 6.39844 13.7812V12.7266H9.5625C10.1455 12.7266 10.6172 12.2548 10.6172 11.6719V6.32812H5.34375C4.76079 6.32812 4.28906 5.8564 4.28906 5.27344V0H1.05469C0.471727 0 0 0.471727 0 1.05469V11.6719C0 12.2548 0.471727 12.7266 1.05469 12.7266H4.28906V13.7812C4.28906 15.526 5.70839 16.9453 7.45312 16.9453C8.03503 16.9453 8.50781 17.4181 8.50781 18V18.618L8.19879 18.309C7.78683 17.897 7.11935 17.897 6.70739 18.309C6.29543 18.7209 6.29543 19.3884 6.70739 19.8004L8.81677 21.9097C9.02278 22.1157 9.29264 22.2188 9.56243 22.2188C9.83222 22.2188 10.1021 22.1157 10.3081 21.9097L12.4175 19.8004C12.8296 19.3884 12.8296 18.721 12.4175 18.309Z" fill="white"/>
<path opacity="0.5" d="M6.39844 0.106934V4.21895H10.5105C10.09 2.15577 8.46162 0.527402 6.39844 0.106934Z" fill="white"/>
<path opacity="0.5" d="M19.0547 0.106934V4.21895H23.1667C22.7462 2.15577 21.1179 0.527402 19.0547 0.106934Z" fill="white"/>
<path d="M22.2188 12.7266C22.8017 12.7266 23.2734 12.2548 23.2734 11.6719V6.32812H18C17.417 6.32812 16.9453 5.8564 16.9453 5.27344V0H13.7812C13.1983 0 12.7266 0.471727 12.7266 1.05469V11.6719C12.7266 12.2548 13.1983 12.7266 13.7812 12.7266H16.9453V18.618L16.6363 18.309C16.2243 17.897 15.5569 17.897 15.1449 18.309C14.7329 18.7209 14.7329 19.3884 15.1449 19.8004L17.2543 21.9097C17.4603 22.1157 17.7301 22.2188 17.9999 22.2188C18.2697 22.2188 18.5396 22.1157 18.7456 21.9097L20.855 19.8004C21.2669 19.3884 21.2669 18.7209 20.855 18.309C20.443 17.897 19.7755 17.897 19.3636 18.309L19.0547 18.618V12.7266H22.2188Z" fill="white"/>
<path opacity="0.5" d="M31.7109 0.106934V4.21895H35.8933C35.4728 2.15577 33.7741 0.527402 31.7109 0.106934Z" fill="white"/>
<path d="M29.6015 5.27344V0H26.4375C25.8545 0 25.3828 0.471727 25.3828 1.05469V11.6719C25.3828 12.2548 25.8545 12.7266 26.4375 12.7266H29.6015V13.7812C29.6015 14.3632 29.1288 14.8359 28.5469 14.8359C26.8021 14.8359 25.3828 16.2553 25.3828 18V18.618L25.0738 18.309C24.6618 17.897 23.9943 17.897 23.5824 18.309C23.1704 18.7209 23.1704 19.3884 23.5824 19.8004L25.6918 21.9097C25.8978 22.1157 26.1676 22.2188 26.4374 22.2188C26.7072 22.2188 26.9771 22.1157 27.1831 21.9097L29.2925 19.8004C29.7044 19.3884 29.7044 18.7209 29.2925 18.309C28.8805 17.897 28.213 17.897 27.8011 18.309L27.4922 18.618V18C27.4922 17.4181 27.965 16.9453 28.5469 16.9453C30.2916 16.9453 31.7109 15.526 31.7109 13.7812V12.7266H34.9453C35.5283 12.7266 36 12.2548 36 11.6719V6.32812H30.6562C30.0733 6.32812 29.6015 5.8564 29.6015 5.27344Z" fill="white"/>
</svg>
