<svg width="32" height="32" viewBox="0 0 32 32" fill="none" xmlns="http://www.w3.org/2000/svg">
<g clip-path="url(#clip0_91_335)">
<path d="M32 14.75C32 17.5906 31.1226 20.3486 29.4624 22.7258C29.0672 23.292 28.2879 23.4304 27.7219 23.0352C27.1558 22.6399 27.0174 21.8606 27.4126 21.2947C28.7783 19.3391 29.5 17.0759 29.5 14.75C29.5 7.99536 23.4439 2.5 16 2.5C8.55617 2.5 2.50002 7.99536 2.50002 14.75C2.50002 17.4863 3.47365 20.075 5.31545 22.2358C5.61769 22.5901 5.69753 23.0833 5.52297 23.5151L3.56276 28.3645L9.27175 25.8477C9.58815 25.7083 9.94826 25.7061 10.2664 25.8418C12.0676 26.6104 13.9966 27 16 27C18.3059 27 20.5813 26.4634 22.5803 25.448C23.1958 25.1355 23.9485 25.3811 24.261 25.9963C24.5735 26.6121 24.3279 27.3643 23.7124 27.677C21.3643 28.8696 18.6973 29.5 16 29.5C13.845 29.5 11.7605 29.113 9.79543 28.3491L1.75441 31.8938C1.5923 31.9653 1.42067 32 1.25026 32C0.931658 32 0.618181 31.8782 0.3799 31.6475C0.0146657 31.2932 -0.0995921 30.7532 0.0910817 30.2815L2.92946 23.2607C1.01027 20.7659 1.72256e-05 17.8391 1.72256e-05 14.75C1.72256e-05 10.7891 1.67848 7.07153 4.72634 4.28198C7.74318 1.52075 11.7471 0 16 0C20.2532 0 24.2569 1.52075 27.2739 4.28198C30.3216 7.07153 32 10.7891 32 14.75ZM16 20.375C15.3098 20.375 14.75 20.9346 14.75 21.625C14.75 22.3154 15.3098 22.875 16 22.875C16.6904 22.875 17.25 22.3154 17.25 21.625C17.25 20.9346 16.6904 20.375 16 20.375ZM17.2507 16.1467C17.2507 15.7898 17.4539 15.4722 17.7686 15.3379C19.4319 14.6277 20.5066 13.0005 20.5061 11.1919C20.5061 11.1743 20.5056 11.1567 20.5049 11.1392C20.4763 8.67969 18.4668 6.6875 16.0007 6.6875C13.5169 6.6875 11.4961 8.70825 11.4961 11.1921C11.4961 11.8826 12.0557 12.4421 12.7461 12.4421C13.4363 12.4421 13.9961 11.8826 13.9961 11.1921C13.9961 10.0867 14.8953 9.1875 16.0007 9.1875C17.106 9.1875 18.0054 10.0869 18.0054 11.1921C18.0054 11.2041 18.0054 11.2158 18.0059 11.2278C17.9922 12.0188 17.5169 12.7268 16.7871 13.0386C15.5501 13.5667 14.7507 14.7866 14.7507 16.1467V17.25C14.7507 17.9404 15.3103 18.5 16.0007 18.5C16.6909 18.5 17.2507 17.9404 17.2507 17.25V16.1467Z" fill="#4D2EDB"/>
</g>
<defs>
<clipPath id="clip0_91_335">
<rect width="32" height="32" fill="white"/>
</clipPath>
</defs>
</svg>
