<svg width="36" height="36" viewBox="0 0 36 36" fill="none" xmlns="http://www.w3.org/2000/svg">
<g clip-path="url(#clip0_98_404)">
<path opacity="0.5" d="M0.00820307 15.684C-0.0699844 16.3132 0.420727 16.8687 1.0548 16.8687H5.3457C5.86073 16.8687 6.30047 16.4967 6.38576 15.9887C7.21158 11.0707 11.0706 7.21158 15.9886 6.38583C16.4966 6.30054 16.8686 5.8608 16.8686 5.3457V1.0548C16.8686 0.420727 16.3132 -0.0699844 15.6839 0.00820307C11.7274 0.499898 7.98973 2.32936 5.15951 5.15951C2.32936 7.98973 0.499898 11.7274 0.00820307 15.684Z" fill="white"/>
<path opacity="0.7" d="M24.7202 27.4698C22.7184 28.8991 20.3711 29.6546 17.9322 29.6546C12.1932 29.6546 7.3373 25.542 6.38583 19.8756C6.30054 19.3677 5.86081 18.9956 5.34577 18.9956H1.0548C0.420727 18.9956 -0.0699844 19.5511 0.00820307 20.1803V20.1804C1.12905 29.1991 8.83467 36.0001 17.9322 36.0001C21.985 36.0001 25.8177 34.6846 29.0161 32.1959C29.5167 31.8064 29.5627 31.0663 29.1142 30.6178L26.0788 27.5824C25.7142 27.2179 25.1397 27.1703 24.7202 27.4698Z" fill="white"/>
<path d="M19.8755 6.38583C25.5418 7.3373 29.6545 12.1932 29.6545 17.9322C29.6545 20.3711 28.899 22.7183 27.4698 24.7202C27.1702 25.1396 27.2178 25.7142 27.5823 26.0787L30.6179 29.1143C31.0664 29.5628 31.8064 29.5167 32.196 29.0162L32.196 29.0161C34.6846 25.8179 36 21.9851 36 17.9322C36 8.83467 29.199 1.12905 20.1803 0.00820307H20.1802C19.551 -0.0699844 18.9954 0.420727 18.9954 1.0548V5.3457C18.9955 5.8608 19.3675 6.30054 19.8755 6.38583Z" fill="white"/>
<path d="M18.6345 10.6851H17.2274C16.6449 10.6851 16.1727 11.1573 16.1727 11.7397V24.0443H19.6892V11.7397C19.6892 11.1573 19.217 10.6851 18.6345 10.6851Z" fill="white"/>
<path opacity="0.5" d="M21.7986 24.0444H24.2604C24.8428 24.0444 25.3151 23.5721 25.3151 22.9897V14.5522C25.3151 13.9698 24.8428 13.4976 24.2604 13.4976H21.7986V24.0444Z" fill="white"/>
<path opacity="0.7" d="M14.0634 16.3101H11.6042C11.0218 16.3101 10.5496 16.7823 10.5496 17.3647V22.9897C10.5496 23.5721 11.0218 24.0444 11.6042 24.0444H14.0634V16.3101Z" fill="white"/>
</g>
<defs>
<clipPath id="clip0_98_404">
<rect width="36" height="36" fill="white"/>
</clipPath>
</defs>
</svg>
