<svg width="30" height="32" viewBox="0 0 30 32" fill="none" xmlns="http://www.w3.org/2000/svg">
<path d="M10.2227 7.95556L10.2037 9.52681C10.1939 10.338 10.5799 11.107 11.2363 11.5839C11.6694 11.8986 12.1871 12.0619 12.71 12.0619C12.9794 12.0619 13.2503 12.0185 13.5116 11.9301L15 11.4265L16.4884 11.9301C17.2568 12.1901 18.1074 12.0607 18.7637 11.5839C19.42 11.107 19.8061 10.338 19.7963 9.52675L19.7773 7.95556L20.7161 6.69569C21.2009 6.04519 21.3406 5.19619 21.0899 4.42462C20.8391 3.653 20.2271 3.04831 19.4526 2.807L17.9524 2.33956L17.0443 1.05719C16.5755 0.39525 15.8112 0 15 0C14.1888 0 13.4245 0.39525 12.9556 1.05725L12.0475 2.33962L10.5474 2.80706C9.77281 3.04837 9.16075 3.65306 8.91006 4.42469C8.65938 5.19625 8.79913 6.04525 9.28381 6.69569L10.2227 7.95556ZM11.2911 5.19387L13.195 4.60063C13.4569 4.519 13.6846 4.3535 13.8432 4.12969L14.9952 2.50069C14.9974 2.49988 15.0026 2.49988 15.0011 2.49831C15.0011 2.49831 15.0023 2.49944 15.0043 2.50225L16.1568 4.12969C16.3154 4.3535 16.5431 4.519 16.805 4.60063L18.7103 5.19281C18.7117 5.19469 18.7133 5.19956 18.7116 5.20194L17.52 6.801C17.3561 7.02094 17.2691 7.28875 17.2724 7.563L17.2979 9.558C17.2966 9.55994 17.2926 9.56313 17.2897 9.562L15.4006 8.92281C15.1408 8.83494 14.8593 8.83494 14.5994 8.92281L12.7099 9.56363C12.7077 9.56294 12.7035 9.55994 12.7036 9.55706L12.7276 7.563C12.731 7.28869 12.6439 7.02087 12.4801 6.801L11.2868 5.20206C11.2867 5.1995 11.2883 5.19462 11.2911 5.19387Z" fill="#4D2EDB"/>
<path d="M28.5027 29.5001H21.4203V21.254H23.7153C24.9781 21.254 26.0054 22.2814 26.0054 23.5441V24.5001C26.0054 25.1904 26.565 25.7501 27.2554 25.7501C27.9458 25.7501 28.5054 25.1904 28.5054 24.5001V23.5441C28.5054 20.9028 26.3566 18.754 23.7153 18.754H21.4203V18.1411C21.4203 15.4999 19.2714 13.3511 16.6301 13.3511H13.3699C10.9223 13.3511 8.8975 15.1963 8.61381 17.5688H6.28475C3.6435 17.5688 1.49469 19.7176 1.49469 22.3589V29.5001C0.805564 29.5015 0.247314 30.0606 0.247314 30.7501C0.247314 31.4404 0.806939 32.0001 1.49731 32.0001H28.5027C29.1931 32.0001 29.7527 31.4404 29.7527 30.7501C29.7527 30.0597 29.1931 29.5001 28.5027 29.5001ZM3.99469 22.3589C3.99469 21.0962 5.022 20.0688 6.28475 20.0688H8.57981V29.5001H3.99469V22.3589ZM11.0798 18.1412C11.0798 16.8784 12.1071 15.8511 13.3699 15.8511H16.6301C17.8929 15.8511 18.9203 16.8784 18.9203 18.1412V29.5001H11.0798V18.1412Z" fill="#4D2EDB"/>
</svg>
