<svg width="36" height="36" viewBox="0 0 36 36" fill="none" xmlns="http://www.w3.org/2000/svg">
<g clip-path="url(#clip0_98_301)">
<path opacity="0.5" d="M28.6172 16.9453C24.5467 16.9453 21.2344 20.2577 21.2344 24.3281C21.2344 25.8823 21.7133 27.3696 22.632 28.6457L27.7736 35.5777C27.9724 35.8434 28.2855 36 28.6172 36H28.6182C28.9499 36 29.263 35.8424 29.4618 35.5766L34.8114 28.3409C35.5891 27.1461 36 25.7587 36 24.3281C36 20.2577 32.6876 16.9453 28.6172 16.9453ZM28.6172 27.4922C26.8725 27.4922 25.4531 26.0729 25.4531 24.3281C25.4531 22.5834 26.8725 21.1641 28.6172 21.1641C30.3619 21.1641 31.7812 22.5834 31.7812 24.3281C31.7812 26.0729 30.3619 27.4922 28.6172 27.4922Z" fill="white"/>
<path d="M1.5975 0.150078C1.27097 -0.0446169 0.86625 -0.0507341 0.534586 0.136719C0.203906 0.324102 0 0.674328 0 1.05437V22.2184C0 22.5892 0.194695 22.9322 0.511875 23.1227L10.6172 29.1436V5.51991L1.5975 0.150078Z" fill="white"/>
<path d="M33.3787 6.47838L23.3438 0.457031V16.4426C24.8534 15.4298 26.6666 14.8358 28.6172 14.8358C30.5678 14.8358 32.3809 15.4298 33.8906 16.4426V7.38267C33.8906 7.01191 33.6959 6.66893 33.3787 6.47838Z" fill="white"/>
<path d="M21.2344 0.457031L12.7266 5.51995V29.1438L19.2011 25.3014C19.1677 24.9781 19.125 24.6563 19.125 24.3279C19.125 22.0909 19.9351 20.0595 21.2344 18.4353V0.457031Z" fill="white"/>
</g>
<defs>
<clipPath id="clip0_98_301">
<rect width="36" height="36" fill="white"/>
</clipPath>
</defs>
</svg>
