<svg width="32" height="32" viewBox="0 0 32 32" fill="none" xmlns="http://www.w3.org/2000/svg">
<g clip-path="url(#clip0_91_487)">
<path d="M31.9189 27.4201C31.7782 26.7443 31.1164 26.3105 30.4403 26.4512C29.7644 26.5919 29.3306 27.2539 29.4714 27.9297C29.5524 28.319 29.4559 28.718 29.2066 29.0246C29.0623 29.2022 28.7403 29.5 28.2067 29.5H3.79332C3.25969 29.5 2.93776 29.2021 2.79338 29.0246C2.54407 28.7181 2.44757 28.319 2.52863 27.9297C3.82588 21.6987 9.32182 17.1471 15.6686 16.9936C15.7786 16.9979 15.889 17 16 17C16.1114 17 16.2223 16.9978 16.3326 16.9936C20.8034 17.1008 24.9356 19.3652 27.4381 23.0973C27.8225 23.6707 28.5989 23.8239 29.1724 23.4394C29.7458 23.055 29.899 22.2785 29.5145 21.7051C27.4634 18.6461 24.4851 16.4218 21.0893 15.3041C23.1586 13.7523 24.5 11.2798 24.5 8.5C24.5 3.81313 20.6869 0 16 0C11.3131 0 7.50001 3.81313 7.50001 8.5C7.50001 11.2815 8.84301 13.7552 10.9146 15.3069C9.01657 15.9318 7.23563 16.9041 5.67688 18.1863C2.81863 20.5373 0.831319 23.8166 0.0811314 27.4201C-0.153994 28.5493 0.127694 29.7091 0.853819 30.6019C1.57638 31.4904 2.64782 32 3.79332 32H28.2066C29.3522 32 30.4236 31.4904 31.1461 30.6019C31.8724 29.7091 32.154 28.5493 31.9189 27.4201ZM10 8.5C10 5.19156 12.6916 2.5 16 2.5C19.3084 2.5 22 5.19156 22 8.5C22 11.7066 19.4716 14.3337 16.3037 14.4924C16.2026 14.4905 16.1014 14.4896 16 14.4896C15.8991 14.4896 15.7983 14.4906 15.6975 14.4924C12.5291 14.3344 10 11.707 10 8.5Z" fill="#4D2EDB"/>
</g>
<defs>
<clipPath id="clip0_91_487">
<rect width="32" height="32" fill="white"/>
</clipPath>
</defs>
</svg>
