<svg width="24" height="25" viewBox="0 0 24 25" fill="none" xmlns="http://www.w3.org/2000/svg">
<path d="M11.75 3.5C11.9313 3.50001 12.1064 3.56564 12.243 3.68477C12.3795 3.80389 12.4684 3.96845 12.493 4.148L12.5 4.25L12.501 11.5H19.754C19.9441 11.5001 20.127 11.5722 20.2658 11.702C20.4047 11.8317 20.4891 12.0093 20.5021 12.1989C20.515 12.3885 20.4555 12.5759 20.3356 12.7233C20.2157 12.8707 20.0443 12.9671 19.856 12.993L19.754 13H12.501L12.503 20.25C12.5027 20.4399 12.4304 20.6227 12.3005 20.7613C12.1707 20.9 11.9932 20.9842 11.8037 20.9971C11.6141 21.0099 11.4268 20.9503 11.2795 20.8304C11.1322 20.7105 11.0359 20.5392 11.01 20.351L11.003 20.249L11.001 13H3.75203C3.56201 12.9999 3.37909 12.9278 3.24024 12.798C3.10139 12.6683 3.01696 12.4907 3.004 12.3011C2.99105 12.1115 3.05055 11.9241 3.17046 11.7767C3.29038 11.6293 3.46178 11.5329 3.65003 11.507L3.75203 11.5H11.002L11 4.25C11 4.05109 11.079 3.86032 11.2197 3.71967C11.3604 3.57902 11.5511 3.5 11.75 3.5Z" fill="#00001F"/>
</svg>
