<svg width="163" height="32" viewBox="0 0 163 32" fill="none" xmlns="http://www.w3.org/2000/svg">
<path d="M31.9446 25.6315C31.688 25.2231 31.3526 24.87 30.958 24.5927C30.5634 24.3154 30.1175 24.1196 29.6463 24.0167C27.8436 23.5974 26.2802 22.4817 25.2977 20.9132C24.3151 19.3448 23.9934 17.4512 24.4027 15.6462C24.56 14.9486 24.5078 14.2201 24.2524 13.552C23.9971 12.884 23.55 12.3063 22.9675 11.8916C22.3849 11.4768 21.6927 11.2435 20.9779 11.2208C20.2631 11.1981 19.5576 11.3871 18.9499 11.7641C18.3421 12.1411 17.8594 12.6892 17.5622 13.3397C17.265 13.9902 17.1666 14.714 17.2795 15.4202C17.3922 16.1264 17.7112 16.7835 18.1963 17.309C18.6813 17.8345 19.3109 18.205 20.0058 18.3739C20.9048 18.5767 21.7549 18.9549 22.5075 19.4869C23.26 20.0188 23.9002 20.6941 24.3913 21.474C24.8823 22.2539 25.2146 23.123 25.3692 24.0315C25.5237 24.94 25.4974 25.8702 25.2918 26.7685C25.17 27.3477 25.1917 27.9478 25.355 28.5166C25.5183 29.0854 25.8183 29.6056 26.2288 30.0319C26.6392 30.4583 27.1476 30.7777 27.7099 30.9625C28.2721 31.1473 28.8709 31.1918 29.4542 31.0921C30.0376 30.9924 30.5877 30.7515 31.0566 30.3905C31.5255 30.0295 31.899 29.5593 32.1446 29.0209C32.3901 28.4824 32.5003 27.8921 32.4654 27.3014C32.4306 26.7106 32.2518 26.1373 31.9446 25.6315Z" fill="#00001F"/>
<path d="M9.63268 21.6033C10.2675 21.9497 10.9913 22.0986 11.7113 22.0308C12.4313 21.9629 13.1146 21.6815 13.6735 21.2227C14.2325 20.7638 14.6416 20.1484 14.8484 19.4554C15.0551 18.7624 15.0501 18.0235 14.834 17.3334C14.56 16.4534 14.4624 15.528 14.5468 14.6102C14.6312 13.6925 14.8958 12.8004 15.3257 11.9851C15.7555 11.1699 16.342 10.4474 17.0516 9.85927C17.7612 9.2711 18.5799 8.82883 19.4607 8.55771C20.1439 8.34373 20.7484 7.93243 21.1984 7.37564C21.6484 6.81885 21.9236 6.14141 21.9894 5.42854C22.0553 4.71568 21.9088 3.99926 21.5684 3.3695C21.228 2.73969 20.709 2.22463 20.0766 1.88915C19.4442 1.55367 18.7267 1.41271 18.0144 1.48408C17.3021 1.55541 16.6268 1.83582 16.0734 2.29009C15.5201 2.74431 15.1135 3.35208 14.9048 4.03685C14.6961 4.72163 14.6946 5.45285 14.9005 6.13847C15.441 7.90852 15.2582 9.82065 14.3922 11.4563C13.5262 13.0919 12.0476 14.3178 10.2798 14.8658C9.58197 15.0681 8.96092 15.4753 8.4971 16.0346C8.03328 16.5939 7.74802 17.2796 7.67829 18.0028C7.60861 18.7261 7.75762 19.4536 8.10607 20.0912C8.45453 20.7288 8.98634 21.2471 9.63268 21.5791V21.6033Z" fill="#00001F"/>
<path d="M18.9709 21.0101C18.4884 21.0271 18.0142 21.1401 17.5759 21.3426C17.1377 21.5452 16.7442 21.833 16.4186 22.1895C15.1554 23.5407 13.4086 24.3367 11.5602 24.4035C9.71167 24.4704 7.91189 23.8027 6.55434 22.5464C6.20357 22.2172 5.7909 21.9611 5.34028 21.7929C4.8897 21.6247 4.41014 21.5478 3.92952 21.5666C3.33794 21.5945 2.76213 21.7668 2.25244 22.0684C1.74271 22.37 1.31462 22.7918 1.00545 23.2969C0.696238 23.802 0.515411 24.3752 0.478659 24.9663C0.441952 25.5574 0.55043 26.1485 0.794718 26.6881C1.03901 27.2276 1.41159 27.6991 1.88003 28.0615C2.34848 28.424 2.89847 28.6662 3.48206 28.7671C4.06564 28.868 4.6651 28.8246 5.22802 28.6406C5.79099 28.4565 6.30032 28.1375 6.71157 27.7114C7.33719 27.034 8.09028 26.4867 8.92771 26.1009C9.76518 25.7151 10.6705 25.4982 11.5919 25.4628C12.5133 25.4274 13.4326 25.5741 14.2972 25.8946C15.1618 26.2151 15.9546 26.703 16.6303 27.3303C17.0702 27.7278 17.6009 28.0115 18.1757 28.1564C18.7507 28.3014 19.3523 28.3033 19.9281 28.162C20.5039 28.0207 21.0363 27.7405 21.4787 27.3458C21.9212 26.9511 22.2601 26.454 22.4661 25.898C22.672 25.342 22.7385 24.7441 22.6599 24.1564C22.5812 23.5688 22.3598 23.0094 22.0149 22.5271C21.67 22.0448 21.2123 21.6544 20.6816 21.3899C20.151 21.1255 19.5636 20.9951 18.9709 21.0101Z" fill="#00001F"/>
<path d="M57.1079 25.8664C59.0565 25.8664 60.271 25.159 60.7515 23.7443C60.9116 23.2105 61.0317 22.5298 61.1118 21.7023L60.0708 21.6623C59.9106 23.5041 59.4435 24.4383 58.6694 24.465C58.0822 24.4116 57.7886 23.7443 57.7886 22.4631V14.0949C57.7886 10.7583 56.2404 8.70298 53.144 7.92889C52.3433 7.74204 51.4757 7.64862 50.5415 7.64862C46.9113 7.64862 44.6291 8.43606 43.6948 10.0109C43.4546 10.4113 43.3345 10.8384 43.3345 11.2922C43.3345 12.3332 43.8283 12.9872 44.8159 13.2541C45.0562 13.3342 45.3097 13.3742 45.5767 13.3742C46.7244 13.3742 47.4985 12.8137 47.8989 11.6926C47.9523 11.5324 48.0324 11.2655 48.1392 10.8918C48.4328 9.82408 48.8065 9.15676 49.2603 8.88983C49.5539 8.75637 49.8875 8.68964 50.2612 8.68964C51.5158 8.68964 52.2765 9.45038 52.5435 10.9719C52.6502 11.5324 52.7036 12.1997 52.7036 12.9738V15.5764C45.8436 15.7098 42.4002 17.5249 42.3735 21.0217C42.3735 23.3973 43.4146 24.9188 45.4966 25.5861C46.1105 25.773 46.7912 25.8664 47.5386 25.8664C49.8075 25.8664 51.4757 25.0122 52.5435 23.3039C52.757 22.9569 52.9305 22.5965 53.064 22.2228C53.6245 24.5184 54.9725 25.7329 57.1079 25.8664ZM49.6206 24.1447C48.286 24.0913 47.6053 22.9035 47.5786 20.5812C47.5786 18.8195 48.2993 17.6717 49.7407 17.1379C50.5148 16.8976 51.5024 16.7508 52.7036 16.6974V20.5812C52.1965 22.4497 51.3823 23.5975 50.2612 24.0246C50.021 24.1047 49.8075 24.1447 49.6206 24.1447Z" fill="#00001F"/>
<path d="M72.4829 24.425H69.52V15.7766C69.7069 12.9738 70.3875 11.2655 71.562 10.6516C71.7489 10.5715 71.9224 10.5314 72.0825 10.5314C72.3761 10.5314 72.6965 10.8384 73.0435 11.4523C73.5239 12.3065 74.0444 12.8404 74.605 13.0539C74.8719 13.134 75.1655 13.174 75.4858 13.174C76.5535 13.174 77.3143 12.6669 77.7681 11.6525C77.9282 11.3055 78.0083 10.9452 78.0083 10.5715C78.0083 9.23684 77.3543 8.39602 76.0464 8.04901C75.7261 7.96893 75.3924 7.92889 75.0454 7.92889C73.3905 7.92889 71.9357 8.58287 70.6812 9.89081C70.1206 10.5314 69.6935 11.2254 69.3999 11.9728L69.1196 8.24921H62.1128V9.29022H64.4351V22.343C64.4351 23.5174 63.9679 24.1848 63.0337 24.3449C62.7668 24.3983 62.4598 24.425 62.1128 24.425V25.466H73.4438C73.4438 24.8521 73.2703 24.5184 72.9233 24.465C72.7899 24.4383 72.6431 24.425 72.4829 24.425Z" fill="#00001F"/>
<path d="M84.895 16.7775C84.895 13.0405 85.3488 10.6516 86.2563 9.61053C86.8169 8.9966 87.6043 8.68964 88.6187 8.68964C90.327 8.68964 91.4214 9.55715 91.9019 11.2922C92.2222 12.4133 92.3823 14.1883 92.3823 16.6174C92.3823 20.5145 91.8752 22.9702 90.8608 23.9846C90.2736 24.5451 89.5129 24.8254 88.5786 24.8254C86.9237 24.8254 85.856 23.9712 85.3755 22.2629C85.0552 21.1151 84.895 19.2866 84.895 16.7775ZM88.8188 7.64862C85.5356 7.64862 83.0132 8.76971 81.2515 11.0119C80.0236 12.6135 79.4097 14.482 79.4097 16.6174C79.4097 19.6336 80.4507 22.0226 82.5327 23.7844C84.1877 25.1724 86.1629 25.8664 88.4585 25.8664C91.6082 25.8664 94.0773 24.732 95.8657 22.4631C97.2004 20.7547 97.8677 18.7795 97.8677 16.5373C97.8677 13.5477 96.8133 11.2121 94.7046 9.53046C93.0763 8.2759 91.1144 7.64862 88.8188 7.64862Z" fill="#00001F"/>
<path d="M107.998 24.425H107.277L107.317 14.0949C107.477 11.9862 108.171 10.6115 109.399 9.97089C109.746 9.78404 110.093 9.69061 110.44 9.69061C111.428 9.69061 112.135 10.3045 112.562 11.5324C112.749 12.1196 112.842 12.7736 112.842 13.4943V22.343C112.842 23.4374 112.589 24.0913 112.082 24.3049C111.841 24.3849 111.508 24.425 111.081 24.425V25.466H119.569C119.569 24.8521 119.395 24.5184 119.048 24.465C118.888 24.4383 118.728 24.425 118.568 24.425H117.887V14.175V13.8947C118.074 11.6792 118.795 10.3045 120.049 9.77069C120.316 9.66392 120.583 9.61053 120.85 9.61053C121.998 9.61053 122.785 10.2912 123.212 11.6525C123.373 12.2131 123.453 12.827 123.453 13.4943V22.343C123.453 23.4374 123.199 24.0913 122.692 24.3049C122.452 24.3849 122.118 24.425 121.691 24.425V25.466H130.82C130.82 24.8521 130.646 24.5184 130.299 24.465C130.139 24.4383 129.979 24.425 129.819 24.425H128.498V13.9748C128.498 11.3589 127.63 9.50376 125.895 8.40936C125.094 7.9022 124.227 7.64862 123.292 7.64862C120.703 7.67531 118.768 8.91652 117.487 11.3723C116.846 9.47707 115.712 8.28925 114.083 7.80878C113.656 7.70201 113.229 7.64862 112.802 7.64862C110.24 7.67531 108.371 8.84979 107.197 11.1721L106.997 8.24921H99.8696V9.29022H102.192V22.343C102.192 23.5708 101.618 24.2515 100.47 24.3849C100.283 24.4116 100.083 24.425 99.8696 24.425V25.466H108.958C108.958 24.8521 108.785 24.5184 108.438 24.465C108.305 24.4383 108.158 24.425 107.998 24.425Z" fill="#00001F"/>
<path d="M141.31 24.425H139.829V8.24921H132.421V9.29022H134.744V22.343C134.744 23.5174 134.277 24.1848 133.342 24.3449C133.075 24.3983 132.768 24.425 132.421 24.425V25.466H142.271C142.271 24.8521 142.097 24.5184 141.75 24.465C141.617 24.4383 141.47 24.425 141.31 24.425ZM140.189 3.00409C140.189 1.82961 139.668 0.962097 138.627 0.40155C138.174 0.134623 137.693 0.00115967 137.186 0.00115967C136.038 0.00115967 135.171 0.521667 134.583 1.56268C134.343 2.01646 134.223 2.49693 134.223 3.00409C134.223 4.17857 134.744 5.03274 135.785 5.56659C136.238 5.80682 136.706 5.92694 137.186 5.92694C138.361 5.92694 139.228 5.43313 139.789 4.4455C140.056 3.99172 140.189 3.51125 140.189 3.00409Z" fill="#00001F"/>
<path d="M143.272 25.466H149.318V24.425H146.515L151.32 18.4191L155.324 24.425H153.122V25.466H162.371C162.371 24.8521 162.157 24.5184 161.73 24.465C161.623 24.4383 161.503 24.425 161.37 24.425H160.569L154.723 15.6164L158.687 10.4514C159.221 9.73065 159.902 9.33026 160.729 9.25018C161.129 9.1968 161.37 9.03664 161.45 8.76971C161.476 8.60956 161.49 8.43606 161.49 8.24921H155.564V9.29022H158.167L154.042 14.6154L150.519 9.29022H152.721V8.24921H143.432V9.29022H145.274L150.719 17.4582L145.995 23.2639C145.434 23.9312 144.753 24.3316 143.953 24.465C143.579 24.4917 143.365 24.6519 143.312 24.9455C143.285 25.1057 143.272 25.2792 143.272 25.466Z" fill="#00001F"/>
</svg>
