<svg width="164" height="42" viewBox="0 0 164 42" fill="none" xmlns="http://www.w3.org/2000/svg">
<path d="M160.826 41.7296C161.229 41.8255 161.634 41.5767 161.73 41.1737L163.293 34.6073C163.389 34.2043 163.14 33.7999 162.737 33.704C162.334 33.608 161.93 33.8569 161.834 34.2598L160.444 40.0967L154.607 38.707C154.204 38.611 153.8 38.8599 153.704 39.2628C153.608 39.6658 153.857 40.0702 154.26 40.1662L160.826 41.7296ZM1 41C1.63874 41.3931 1.63872 41.3931 1.63869 41.3932C1.63869 41.3932 1.63867 41.3932 1.63865 41.3932C1.63863 41.3933 1.63862 41.3933 1.63861 41.3933C1.6386 41.3933 1.63863 41.3933 1.63868 41.3932C1.63879 41.393 1.63903 41.3926 1.63941 41.392C1.64016 41.3908 1.64143 41.3887 1.64323 41.3858C1.64683 41.38 1.65255 41.3709 1.66037 41.3584C1.67602 41.3335 1.70012 41.2955 1.73271 41.2447C1.79789 41.1432 1.89703 40.9909 2.03043 40.792C2.29724 40.3943 2.70107 39.81 3.24439 39.0715L2.03618 38.1826C1.47931 38.9394 1.06299 39.5416 0.784713 39.9565C0.645568 40.1639 0.54092 40.3246 0.470453 40.4343C0.435219 40.4892 0.408528 40.5314 0.390342 40.5603C0.381249 40.5748 0.374282 40.5859 0.369436 40.5937C0.367013 40.5976 0.365121 40.6007 0.363757 40.6029C0.363076 40.604 0.362527 40.6049 0.36211 40.6055C0.361901 40.6059 0.361726 40.6062 0.361584 40.6064C0.361513 40.6065 0.36145 40.6066 0.361395 40.6067C0.361368 40.6067 0.361333 40.6068 0.36132 40.6068C0.361287 40.6069 0.361256 40.6069 1 41ZM6.84126 34.5829C7.96205 33.2859 9.26748 31.856 10.7611 30.3406L9.69285 29.2876C8.1748 30.8278 6.8472 32.2819 5.70631 33.6021L6.84126 34.5829ZM14.929 26.3659C16.2904 25.1449 17.7596 23.8983 19.3381 22.646L18.4058 21.4709C16.8026 22.7427 15.3104 24.009 13.9275 25.2492L14.929 26.3659ZM23.9651 19.1968C25.4941 18.1271 27.1046 17.0669 28.7978 16.0288L28.0137 14.75C26.294 15.8044 24.6581 16.8813 23.1052 17.9678L23.9651 19.1968ZM33.7936 13.1696C35.4506 12.2868 37.1746 11.4313 38.9664 10.6122L38.3428 9.24798C36.5227 10.08 34.7714 10.949 33.0883 11.8458L33.7936 13.1696ZM44.2797 8.37555C46.0378 7.69741 47.8532 7.05702 49.7265 6.46139L49.272 5.03191C47.3695 5.63682 45.5257 6.28724 43.7399 6.97606L44.2797 8.37555ZM55.2642 4.88043C57.0932 4.41635 58.9718 3.99593 60.9006 3.62466L60.617 2.1517C58.6594 2.52853 56.7523 2.95531 54.8953 3.42651L55.2642 4.88043ZM66.6027 2.69503C68.469 2.44469 70.3783 2.24055 72.3309 2.08689L72.2132 0.591509C70.2332 0.747322 68.2967 0.954371 66.4033 1.20834L66.6027 2.69503ZM78.0913 1.78731C79.0511 1.76259 80.0207 1.75 81 1.75V0.25C80.0078 0.25 79.0254 0.262753 78.0527 0.28781L78.0913 1.78731ZM81 1.75C81.9793 1.75 82.9489 1.76259 83.9087 1.78731L83.9473 0.28781C82.9746 0.262753 81.9922 0.25 81 0.25V1.75ZM89.6691 2.08689C91.6217 2.24055 93.531 2.44469 95.3973 2.69503L95.5967 1.20834C93.7033 0.954372 91.7668 0.747323 89.7868 0.59151L89.6691 2.08689ZM101.099 3.62466C103.028 3.99593 104.907 4.41635 106.736 4.88043L107.105 3.42651C105.248 2.95531 103.341 2.52853 101.383 2.1517L101.099 3.62466ZM112.273 6.46139C114.147 7.05703 115.962 7.69741 117.72 8.37556L118.26 6.97606C116.474 6.28724 114.63 5.63683 112.728 5.03191L112.273 6.46139ZM123.034 10.6122C124.825 11.4313 126.549 12.2868 128.206 13.1696L128.912 11.8458C127.229 10.949 125.477 10.08 123.657 9.24799L123.034 10.6122ZM133.202 16.0288C134.895 17.0669 136.506 18.1271 138.035 19.1968L138.895 17.9678C137.342 16.8813 135.706 15.8044 133.986 14.75L133.202 16.0288ZM142.662 22.646C144.24 23.8983 145.71 25.1449 147.071 26.3659L148.073 25.2492C146.69 24.009 145.197 22.7427 143.594 21.4709L142.662 22.646ZM151.239 30.3406C152.733 31.856 154.038 33.2859 155.159 34.5829L156.294 33.6021C155.153 32.2819 153.825 30.8278 152.307 29.2876L151.239 30.3406ZM158.756 39.0715C159.299 39.81 159.703 40.3943 159.97 40.792C160.103 40.9909 160.202 41.1432 160.267 41.2447C160.3 41.2955 160.324 41.3335 160.34 41.3584C160.347 41.3709 160.353 41.38 160.357 41.3858C160.359 41.3887 160.36 41.3908 160.361 41.392C160.361 41.3926 160.361 41.393 160.361 41.3932C160.361 41.3933 160.361 41.3933 160.361 41.3933C160.361 41.3933 160.361 41.3933 160.361 41.3932C160.361 41.3932 160.361 41.3932 160.361 41.3932C160.361 41.3931 160.361 41.3931 161 41C161.639 40.6069 161.639 40.6069 161.639 40.6068C161.639 40.6068 161.639 40.6067 161.639 40.6067C161.639 40.6066 161.638 40.6065 161.638 40.6064C161.638 40.6062 161.638 40.6059 161.638 40.6055C161.637 40.6049 161.637 40.604 161.636 40.6029C161.635 40.6007 161.633 40.5976 161.631 40.5937C161.626 40.5859 161.619 40.5748 161.61 40.5603C161.591 40.5314 161.565 40.4892 161.53 40.4343C161.459 40.3246 161.354 40.1639 161.215 39.9565C160.937 39.5416 160.521 38.9394 159.964 38.1826L158.756 39.0715Z" fill="#4D2EDB"/>
</svg>
