<svg width="104" height="32" viewBox="0 0 104 32" fill="none" xmlns="http://www.w3.org/2000/svg">
<path d="M19.4483 7.22613C15.4976 7.22613 7.58385 4.02347 7.58385 0.0725708H7.52536C7.52536 3.23469 8.78147 6.26729 11.0174 8.50329C13.2533 10.7393 16.2858 11.9955 19.448 11.9956C21.3452 11.9956 23.1648 12.7493 24.5065 14.0909C25.8481 15.4325 26.6018 17.2521 26.6018 19.1493C26.6023 21.0466 25.8489 22.8665 24.5075 24.2083C23.1662 25.5502 21.3467 26.3042 19.4495 26.3047C17.552 26.305 15.7323 25.5516 14.3904 24.2102C13.0486 22.8689 12.2945 21.0494 12.2941 19.1522C12.2941 17.5864 11.9856 16.0359 11.3864 14.5894C10.7871 13.1428 9.90887 11.8285 8.80166 10.7213C7.69445 9.61419 6.38004 8.73598 4.93343 8.13683C3.48683 7.53769 1.93637 7.22935 0.370605 7.22941V7.28744C4.32076 7.28744 7.52343 15.1977 7.52491 19.1492H7.52416C7.52415 21.5074 8.22338 23.8126 9.53345 25.7733C10.8435 27.7341 12.7056 29.2623 14.8843 30.1648C17.0629 31.0673 19.4602 31.3036 21.7731 30.8435C24.0859 30.3836 26.2104 29.248 27.878 27.5807C29.5455 25.9133 30.6811 23.7889 31.1414 21.476C31.6016 19.1632 31.3655 16.7659 30.4632 14.5872C29.561 12.4085 28.0329 10.5463 26.0723 9.236C24.1115 7.92575 21.8063 7.22631 19.4483 7.22613Z" fill="#00001F"/>
<path d="M43.0417 29.37C43.0417 29.74 43.3747 30.073 43.7447 30.073H45.5947C46.0387 30.073 46.6307 29.925 46.6307 29.37V18.344H53.6977V29.37C53.6977 29.74 54.0307 30.073 54.4007 30.073H56.5097C56.8797 30.073 57.2127 29.74 57.2127 29.37V15.976C57.2127 15.606 56.8797 15.273 56.5097 15.273H46.6307V10.685C46.6307 8.13204 48.1847 7.05904 49.7017 7.05904C51.3297 7.05904 53.2167 8.05804 53.5497 8.24304C53.9567 8.46504 54.2897 8.50204 54.5117 8.05804L55.4367 6.39304C55.6217 6.09704 55.5477 5.65304 55.2517 5.46804C54.4747 4.98704 52.1807 3.80304 49.7017 3.80304C46.0387 3.80304 43.0417 6.28204 43.0417 10.685V15.273H41.3027C40.8957 15.273 40.5997 15.569 40.5997 15.976V17.641C40.5997 18.011 40.8957 18.344 41.3027 18.344H43.0417V29.37Z" fill="#00001F"/>
<path d="M62.0207 29.37C62.0207 29.74 62.3537 30.073 62.7237 30.073H64.4997C65.0917 30.073 65.4987 29.999 65.4987 29.37V19.972C65.6467 19.713 66.6827 18.159 68.8287 18.159C69.3097 18.159 69.8647 18.307 70.0867 18.418C70.4197 18.566 70.7897 18.492 70.9747 18.085L71.8627 16.272C72.2697 15.273 70.5677 14.903 69.1617 14.903C66.4607 14.903 65.0917 16.679 64.8327 17.049L64.4257 15.791C64.3517 15.495 64.0557 15.273 63.7967 15.273H62.7237C62.3537 15.273 62.0207 15.606 62.0207 15.976V29.37Z" fill="#00001F"/>
<path d="M73.269 22.673C73.269 26.928 76.229 30.443 80.706 30.443C83.185 30.443 85.109 29.518 86.182 28.593C86.626 28.223 86.515 27.927 86.256 27.631L85.22 26.225C84.924 25.855 84.665 26.003 84.221 26.262C83.481 26.743 82.26 27.335 80.928 27.335C78.523 27.335 76.784 25.374 76.673 23.376H86.737C87.07 23.376 87.366 23.117 87.403 22.747C87.44 22.488 87.477 22.007 87.477 21.748C87.477 17.789 84.517 14.903 80.669 14.903C76.229 14.903 73.269 18.492 73.269 22.673ZM76.858 21.045C77.08 19.195 78.634 17.752 80.632 17.752C82.445 17.752 83.925 19.269 84.036 21.045H76.858Z" fill="#00001F"/>
<path d="M91.0354 29.37C91.0354 29.74 91.3684 30.073 91.7384 30.073H93.8474C94.2174 30.073 94.5504 29.74 94.5504 29.37V4.87604C94.5504 4.50604 94.2174 4.17304 93.8474 4.17304H91.7384C91.3684 4.17304 91.0354 4.50604 91.0354 4.87604V29.37Z" fill="#00001F"/>
<path d="M101.048 9.24204C102.269 9.24204 103.231 8.28004 103.231 7.09604C103.231 5.87504 102.269 4.91304 101.048 4.91304C99.8639 4.91304 98.9389 5.87504 98.9389 7.09604C98.9389 8.28004 99.8639 9.24204 101.048 9.24204ZM99.3459 29.37C99.3459 29.74 99.6789 30.073 100.049 30.073H102.158C102.528 30.073 102.861 29.74 102.861 29.37V15.976C102.861 15.606 102.528 15.273 102.158 15.273H100.049C99.6789 15.273 99.3459 15.606 99.3459 15.976V29.37Z" fill="#00001F"/>
</svg>
