<svg width="302" height="167" viewBox="0 0 302 167" fill="none" xmlns="http://www.w3.org/2000/svg">
<rect width="302" height="167" rx="16" fill="white"/>
<rect x="273" y="112" width="14" height="8" fill="#E8E6F2"/>
<rect x="273" y="92" width="14" height="8" fill="#E8E6F2"/>
<rect x="273" y="72" width="14" height="8" fill="#E8E6F2"/>
<rect x="60" y="49" width="26" height="8" fill="#E8E6F2"/>
<rect x="170" y="68" width="26" height="8" fill="#E8E6F2"/>
<rect x="273" y="52" width="14" height="8" fill="#E8E6F2"/>
<path d="M18 44H287" stroke="#DFDFDF" stroke-width="0.5"/>
<path d="M18 64H287" stroke="#DFDFDF" stroke-width="0.5"/>
<path d="M18 84H287" stroke="#DFDFDF" stroke-width="0.5"/>
<path d="M18 104H287" stroke="#DFDFDF" stroke-width="0.5"/>
<path d="M18 124H287" stroke="#DFDFDF" stroke-width="0.5"/>
<path d="M18 144H287" stroke="#DFDFDF" stroke-width="0.5"/>
<path d="M19.9766 155V150.145H19.9141L18.4805 151.184V150.441L19.9805 149.363H20.6797V155H19.9766ZM26.1758 150.715C26.75 150.715 27.2734 151.02 27.5234 151.492H27.5859V150.789H28.2344V156.406H27.5547V154.367H27.4922C27.2227 154.828 26.7695 155.074 26.1758 155.074C25.1016 155.074 24.4141 154.223 24.4141 152.895C24.4141 151.574 25.1094 150.715 26.1758 150.715ZM26.3281 154.469C27.0977 154.469 27.5742 153.863 27.5742 152.895C27.5742 151.93 27.0938 151.32 26.332 151.32C25.5664 151.32 25.1094 151.91 25.1094 152.895C25.1094 153.883 25.5625 154.469 26.3281 154.469ZM29.5 155V150.789H30.1406V151.414H30.2031C30.3281 151.004 30.8125 150.715 31.3711 150.715C31.4805 150.715 31.6211 150.723 31.707 150.734V151.406C31.6523 151.391 31.4102 151.367 31.2773 151.367C30.6367 151.367 30.1719 151.797 30.1719 152.391V155H29.5ZM33.0625 149.699H33.7344V150.789H34.6719V151.352H33.7344V153.734C33.7344 154.23 33.9219 154.441 34.3594 154.441C34.4805 154.441 34.5469 154.438 34.6719 154.426V154.992C34.5391 155.016 34.4102 155.031 34.2773 155.031C33.4102 155.031 33.0625 154.711 33.0625 153.906V151.352H32.3828V150.789H33.0625V149.699Z" fill="#00001F"/>
<path d="M156.594 150.949C156.594 149.949 157.352 149.23 158.398 149.23C159.41 149.23 160.184 149.918 160.184 150.812C160.184 151.398 159.918 151.855 158.992 152.848L157.637 154.305V154.367H160.277V155H156.629V154.516L158.578 152.387C159.305 151.598 159.48 151.293 159.48 150.84C159.48 150.277 159 149.844 158.379 149.844C157.719 149.844 157.273 150.285 157.273 150.949V150.953H156.594V150.949ZM165.277 150.715C165.852 150.715 166.375 151.02 166.625 151.492H166.688V150.789H167.336V156.406H166.656V154.367H166.594C166.324 154.828 165.871 155.074 165.277 155.074C164.203 155.074 163.516 154.223 163.516 152.895C163.516 151.574 164.211 150.715 165.277 150.715ZM165.43 154.469C166.199 154.469 166.676 153.863 166.676 152.895C166.676 151.93 166.195 151.32 165.434 151.32C164.668 151.32 164.211 151.91 164.211 152.895C164.211 153.883 164.664 154.469 165.43 154.469ZM168.602 155V150.789H169.242V151.414H169.305C169.43 151.004 169.914 150.715 170.473 150.715C170.582 150.715 170.723 150.723 170.809 150.734V151.406C170.754 151.391 170.512 151.367 170.379 151.367C169.738 151.367 169.273 151.797 169.273 152.391V155H168.602ZM172.164 149.699H172.836V150.789H173.773V151.352H172.836V153.734C172.836 154.23 173.023 154.441 173.461 154.441C173.582 154.441 173.648 154.438 173.773 154.426V154.992C173.641 155.016 173.512 155.031 173.379 155.031C172.512 155.031 172.164 154.711 172.164 153.906V151.352H171.484V150.789H172.164V149.699Z" fill="#00001F"/>
<rect x="53" y="46" width="5" height="98" fill="#4D2EDB"/>
<rect x="60" y="120" width="5" height="24" fill="#AB3AE0"/>
<rect x="46" y="141" width="5" height="3" fill="#C61131"/>
<rect x="39" y="99" width="5" height="45" fill="#4D2EDB"/>
<rect x="32" y="137" width="5" height="7" fill="#C61131"/>
<rect x="25" y="142" width="5" height="2" fill="#C61131"/>
<rect x="18" y="106" width="5" height="38" fill="#4D2EDB"/>
<rect x="67" y="141" width="5" height="3" fill="#C61131"/>
<rect x="74" y="128" width="5" height="16" fill="#AB3AE0"/>
<rect x="81" y="138" width="5" height="6" fill="#C61131"/>
<rect x="88" y="131" width="5" height="13" fill="#AB3AE0"/>
<rect x="95" y="133" width="5" height="11" fill="#AB3AE0"/>
<rect x="102" y="139" width="5" height="5" fill="#C61131"/>
<rect x="109" y="128" width="5" height="16" fill="#AB3AE0"/>
<rect x="116" y="130" width="5" height="14" fill="#AB3AE0"/>
<rect x="123" y="135" width="5" height="9" fill="#C61131"/>
<rect x="130" y="110" width="5" height="34" fill="#4D2EDB"/>
<rect x="191" y="81" width="5" height="63" fill="#4D2EDB"/>
<rect x="198" y="73" width="5" height="71" fill="#4D2EDB"/>
<rect x="184" y="141" width="5" height="3" fill="#C61131"/>
<rect x="177" y="122" width="5" height="22" fill="#AB3AE0"/>
<rect x="170" y="130" width="5" height="14" fill="#AB3AE0"/>
<rect x="163" y="142" width="5" height="2" fill="#C61131"/>
<rect x="156" y="115" width="5" height="29" fill="#4D2EDB"/>
<rect x="205" y="112" width="5" height="32" fill="#4D2EDB"/>
<rect x="212" y="97" width="5" height="47" fill="#4D2EDB"/>
<rect x="219" y="138" width="5" height="6" fill="#C61131"/>
<rect x="226" y="133" width="5" height="11" fill="#C61131"/>
<rect x="233" y="120" width="5" height="24" fill="#4D2EDB"/>
<rect x="240" y="128" width="5" height="16" fill="#AB3AE0"/>
<rect x="247" y="138" width="5" height="6" fill="#C61131"/>
<rect x="254" y="130" width="5" height="14" fill="#AB3AE0"/>
<rect x="261" y="97" width="5" height="47" fill="#4D2EDB"/>
<rect x="268" y="128" width="5" height="16" fill="#AB3AE0"/>
<path d="M18.6621 24.7266H19.9629C20.0742 25.5293 20.8594 26.0391 21.9902 26.0391C23.0449 26.0391 23.8184 25.4941 23.8184 24.7441C23.8184 24.0996 23.3262 23.7129 22.207 23.4492L21.1172 23.1855C19.5879 22.8281 18.8906 22.0898 18.8906 20.8477C18.8906 19.3418 20.1211 18.3398 21.9668 18.3398C23.6836 18.3398 24.9375 19.3418 25.0137 20.7656H23.7363C23.6133 19.9863 22.9336 19.5 21.9492 19.5C20.9121 19.5 20.2207 19.998 20.2207 20.7598C20.2207 21.3633 20.666 21.709 21.7676 21.9668L22.6992 22.1953C24.4336 22.5996 25.1484 23.3027 25.1484 24.5742C25.1484 26.1914 23.8945 27.2051 21.8906 27.2051C20.0156 27.2051 18.7559 26.2383 18.6621 24.7266ZM33.8379 27H32.5312V23.291H28.1895V27H26.877V18.5449H28.1895V22.0957H32.5312V18.5449H33.8379V27ZM41.4316 27L40.6582 24.7559H37.4355L36.6562 27H35.3086L38.3613 18.5449H39.7734L42.8262 27H41.4316ZM39 20.0801L37.7695 23.6543H40.3242L39.0996 20.0801H39ZM45.6152 19.6992V22.6582H47.502C48.5156 22.6582 49.1016 22.1191 49.1016 21.1758C49.1016 20.2559 48.4805 19.6992 47.4668 19.6992H45.6152ZM45.6152 23.7773V27H44.3027V18.5449H47.6484C49.3535 18.5449 50.4492 19.5586 50.4492 21.1465C50.4492 22.2832 49.8398 23.209 48.8086 23.5605L50.707 27H49.1895L47.4668 23.7773H45.6152ZM57.6855 25.8047V27H52.3184V18.5449H57.6855V19.7402H53.6309V22.1309H57.4688V23.2676H53.6309V25.8047H57.6855ZM66.4688 18.3398C68.9062 18.3398 70.4062 20.0449 70.4062 22.7695C70.4062 25.4883 68.918 27.2051 66.4688 27.2051C64.0137 27.2051 62.5195 25.4941 62.5195 22.7695C62.5195 20.0391 64.043 18.3398 66.4688 18.3398ZM66.4688 19.5645C64.875 19.5645 63.8613 20.8066 63.8613 22.7695C63.8613 24.7207 64.8457 25.9805 66.4688 25.9805C68.0742 25.9805 69.0645 24.7207 69.0645 22.7695C69.0645 20.8066 68.0742 19.5645 66.4688 19.5645ZM73.4941 27H72.1816V18.5449H77.4609V19.7402H73.4941V22.3359H77.127V23.4961H73.4941V27ZM86.2617 27H84.8203L81.7969 18.5449H83.2266L85.5059 25.3594H85.6055L87.873 18.5449H89.2676L86.2617 27ZM92.0566 27H90.7441V18.5449H92.0566V27ZM93.7793 24.7266H95.0801C95.1914 25.5293 95.9766 26.0391 97.1074 26.0391C98.1621 26.0391 98.9355 25.4941 98.9355 24.7441C98.9355 24.0996 98.4434 23.7129 97.3242 23.4492L96.2344 23.1855C94.7051 22.8281 94.0078 22.0898 94.0078 20.8477C94.0078 19.3418 95.2383 18.3398 97.084 18.3398C98.8008 18.3398 100.055 19.3418 100.131 20.7656H98.8535C98.7305 19.9863 98.0508 19.5 97.0664 19.5C96.0293 19.5 95.3379 19.998 95.3379 20.7598C95.3379 21.3633 95.7832 21.709 96.8848 21.9668L97.8164 22.1953C99.5508 22.5996 100.266 23.3027 100.266 24.5742C100.266 26.1914 99.0117 27.2051 97.0078 27.2051C95.1328 27.2051 93.873 26.2383 93.7793 24.7266ZM103.307 27H101.994V18.5449H103.307V27ZM108.885 27H107.572V19.7402H104.912V18.5449H111.539V19.7402H108.885V27Z" fill="url(#paint0_linear_25_1652)"/>
<g opacity="0.3">
<path d="M258 13.332C261.683 13.332 264.668 16.3173 264.668 20C264.668 23.682 261.683 26.6666 258 26.6666C254.317 26.6666 251.333 23.682 251.333 20C251.333 16.3173 254.317 13.332 258 13.332ZM258 14.332C257.251 14.3238 256.507 14.4644 255.812 14.7456C255.117 15.0268 254.485 15.443 253.952 15.9701C253.42 16.4972 252.997 17.1247 252.708 17.8164C252.419 18.5081 252.271 19.2501 252.271 19.9996C252.271 20.7491 252.419 21.4912 252.708 22.1829C252.997 22.8745 253.42 23.5021 253.952 24.0292C254.485 24.5563 255.117 24.9725 255.812 25.2537C256.507 25.5348 257.251 25.6754 258 25.6673C259.493 25.6511 260.918 25.0469 261.968 23.9857C263.018 22.9246 263.607 21.4922 263.607 19.9996C263.607 18.507 263.018 17.0747 261.968 16.0135C260.918 14.9524 259.493 14.3482 258 14.332ZM257.997 18.9986C258.118 18.9985 258.235 19.0422 258.326 19.1216C258.418 19.201 258.477 19.3108 258.493 19.4306L258.498 19.4986L258.501 23.1666C258.502 23.2942 258.454 23.4175 258.368 23.5112C258.281 23.6048 258.162 23.6619 258.035 23.6706C257.907 23.6793 257.782 23.6389 257.683 23.5579C257.585 23.4769 257.521 23.3612 257.505 23.2346L257.501 23.1673L257.498 19.4993C257.498 19.3667 257.551 19.2395 257.644 19.1458C257.738 19.052 257.865 18.9993 257.998 18.9993M258.001 16.668C258.091 16.6651 258.179 16.6803 258.263 16.7125C258.346 16.7446 258.422 16.7932 258.486 16.8553C258.55 16.9174 258.601 16.9917 258.636 17.0739C258.67 17.1561 258.688 17.2444 258.688 17.3336C258.688 17.4229 258.67 17.5112 258.636 17.5934C258.601 17.6755 258.55 17.7499 258.486 17.812C258.422 17.8741 258.346 17.9226 258.263 17.9548C258.179 17.987 258.091 18.0021 258.001 17.9993C257.828 17.9938 257.664 17.9213 257.544 17.7971C257.424 17.6728 257.356 17.5066 257.356 17.3336C257.356 17.1607 257.424 16.9945 257.544 16.8702C257.664 16.746 257.828 16.6734 258.001 16.668Z" fill="#00001F"/>
</g>
<g opacity="0.3">
<path d="M286 17.3334C285.646 17.3334 285.307 17.1929 285.057 16.9428C284.807 16.6928 284.667 16.3536 284.667 16C284.667 15.6464 284.807 15.3073 285.057 15.0572C285.307 14.8072 285.646 14.6667 286 14.6667C286.354 14.6667 286.693 14.8072 286.943 15.0572C287.193 15.3073 287.333 15.6464 287.333 16C287.333 16.3536 287.193 16.6928 286.943 16.9428C286.693 17.1929 286.354 17.3334 286 17.3334ZM286 21.3334C285.646 21.3334 285.307 21.1929 285.057 20.9428C284.807 20.6928 284.667 20.3536 284.667 20C284.667 19.6464 284.807 19.3073 285.057 19.0572C285.307 18.8072 285.646 18.6667 286 18.6667C286.354 18.6667 286.693 18.8072 286.943 19.0572C287.193 19.3073 287.333 19.6464 287.333 20C287.333 20.3536 287.193 20.6928 286.943 20.9428C286.693 21.1929 286.354 21.3334 286 21.3334ZM284.667 24C284.667 24.3536 284.807 24.6928 285.057 24.9428C285.307 25.1929 285.646 25.3334 286 25.3334C286.354 25.3334 286.693 25.1929 286.943 24.9428C287.193 24.6928 287.333 24.3536 287.333 24C287.333 23.6464 287.193 23.3073 286.943 23.0572C286.693 22.8072 286.354 22.6667 286 22.6667C285.646 22.6667 285.307 22.8072 285.057 23.0572C284.807 23.3073 284.667 23.6464 284.667 24Z" fill="#00001F"/>
</g>
<defs>
<linearGradient id="paint0_linear_25_1652" x1="113" y1="32" x2="42.7645" y2="-19.6655" gradientUnits="userSpaceOnUse">
<stop stop-color="#4D2EDB"/>
<stop offset="1" stop-color="#AB3AE0"/>
</linearGradient>
</defs>
</svg>
