<svg width="366" height="324" viewBox="0 0 366 324" fill="none" xmlns="http://www.w3.org/2000/svg">
<rect width="366" height="324" rx="16" fill="white"/>
<g opacity="0.3">
<path d="M322 13.332C325.683 13.332 328.668 16.3173 328.668 20C328.668 23.682 325.683 26.6667 322 26.6667C318.317 26.6667 315.333 23.682 315.333 20C315.333 16.3173 318.317 13.332 322 13.332ZM322 14.332C321.251 14.3239 320.507 14.4645 319.812 14.7456C319.117 15.0268 318.485 15.443 317.952 15.9701C317.42 16.4972 316.997 17.1248 316.708 17.8164C316.419 18.5081 316.271 19.2502 316.271 19.9997C316.271 20.7492 316.419 21.4912 316.708 22.1829C316.997 22.8746 317.42 23.5021 317.952 24.0292C318.485 24.5563 319.117 24.9725 319.812 25.2537C320.507 25.5349 321.251 25.6755 322 25.6673C323.492 25.6511 324.918 25.0469 325.968 23.9858C327.018 22.9246 327.607 21.4923 327.607 19.9997C327.607 18.5071 327.018 17.0747 325.968 16.0136C324.918 14.9524 323.492 14.3482 322 14.332ZM321.997 18.9987C322.118 18.9985 322.235 19.0422 322.326 19.1216C322.418 19.2011 322.477 19.3109 322.493 19.4307L322.498 19.4987L322.501 23.1667C322.502 23.2943 322.454 23.4175 322.368 23.5112C322.281 23.6049 322.162 23.6619 322.035 23.6706C321.907 23.6793 321.782 23.639 321.683 23.5579C321.585 23.4769 321.521 23.3612 321.505 23.2347L321.501 23.1673L321.498 19.4993C321.498 19.3667 321.551 19.2395 321.644 19.1458C321.738 19.052 321.865 18.9993 321.998 18.9993M322.001 16.668C322.091 16.6652 322.179 16.6803 322.263 16.7125C322.346 16.7447 322.422 16.7933 322.486 16.8553C322.55 16.9174 322.601 16.9918 322.636 17.0739C322.67 17.1561 322.688 17.2444 322.688 17.3337C322.688 17.4229 322.67 17.5112 322.636 17.5934C322.601 17.6756 322.55 17.7499 322.486 17.812C322.422 17.8741 322.346 17.9227 322.263 17.9548C322.179 17.987 322.091 18.0022 322.001 17.9993C321.828 17.9939 321.664 17.9213 321.544 17.7971C321.424 17.6729 321.356 17.5067 321.356 17.3337C321.356 17.1607 321.424 16.9945 321.544 16.8702C321.664 16.746 321.828 16.6735 322.001 16.668Z" fill="#00001F"/>
</g>
<g opacity="0.3">
<path d="M350 17.3333C349.646 17.3333 349.307 17.1928 349.057 16.9428C348.807 16.6928 348.667 16.3536 348.667 16C348.667 15.6464 348.807 15.3072 349.057 15.0572C349.307 14.8071 349.646 14.6667 350 14.6667C350.354 14.6667 350.693 14.8071 350.943 15.0572C351.193 15.3072 351.333 15.6464 351.333 16C351.333 16.3536 351.193 16.6928 350.943 16.9428C350.693 17.1928 350.354 17.3333 350 17.3333ZM350 21.3333C349.646 21.3333 349.307 21.1928 349.057 20.9428C348.807 20.6927 348.667 20.3536 348.667 20C348.667 19.6464 348.807 19.3072 349.057 19.0572C349.307 18.8071 349.646 18.6667 350 18.6667C350.354 18.6667 350.693 18.8071 350.943 19.0572C351.193 19.3072 351.333 19.6464 351.333 20C351.333 20.3536 351.193 20.6927 350.943 20.9428C350.693 21.1928 350.354 21.3333 350 21.3333ZM348.667 24C348.667 24.3536 348.807 24.6927 349.057 24.9428C349.307 25.1928 349.646 25.3333 350 25.3333C350.354 25.3333 350.693 25.1928 350.943 24.9428C351.193 24.6927 351.333 24.3536 351.333 24C351.333 23.6464 351.193 23.3072 350.943 23.0572C350.693 22.8071 350.354 22.6667 350 22.6667C349.646 22.6667 349.307 22.8071 349.057 23.0572C348.807 23.3072 348.667 23.6464 348.667 24Z" fill="#00001F"/>
</g>
<path d="M29.7734 65H28.3672V54.9922H24.7344V53.7266H33.4062V54.9922H29.7734V65ZM37.3047 65.1484C34.9062 65.1484 33.4219 63.4922 33.4219 60.7891C33.4219 58.0781 34.9062 56.4297 37.3047 56.4297C39.7031 56.4297 41.1875 58.0781 41.1875 60.7891C41.1875 63.4922 39.7031 65.1484 37.3047 65.1484ZM37.3047 63.9375C38.8984 63.9375 39.7969 62.7812 39.7969 60.7891C39.7969 58.7891 38.8984 57.6406 37.3047 57.6406C35.7109 57.6406 34.8125 58.7891 34.8125 60.7891C34.8125 62.7812 35.7109 63.9375 37.3047 63.9375ZM47.3984 56.4297C49.5469 56.4297 50.9375 58.1406 50.9375 60.7891C50.9375 63.4219 49.5391 65.1484 47.3984 65.1484C46.1953 65.1484 45.2266 64.625 44.7656 63.7344H44.6406V67.8125H43.2969V56.5781H44.5781V57.9844H44.7031C45.2422 57.0156 46.25 56.4297 47.3984 56.4297ZM47.0781 63.9375C48.625 63.9375 49.5469 62.7578 49.5469 60.7891C49.5469 58.8203 48.625 57.6406 47.0859 57.6406C45.5625 57.6406 44.6016 58.8516 44.6016 60.7891C44.6016 62.7188 45.5625 63.9375 47.0781 63.9375ZM59.8594 59.8047V58.6016H61.2266C62.5078 58.6016 63.4141 57.7734 63.4141 56.6016C63.4141 55.4531 62.5469 54.6875 61.25 54.6875C59.9531 54.6875 59.1016 55.4062 58.9844 56.6172H57.6172C57.7578 54.6641 59.1562 53.4609 61.3047 53.4609C63.2734 53.4609 64.8438 54.7734 64.8438 56.4141C64.8438 57.7578 64.1016 58.7422 62.8672 59.0391V59.1641C64.3984 59.3594 65.3281 60.4219 65.3281 61.9609C65.3281 63.8203 63.5859 65.2656 61.3594 65.2656C59.0703 65.2656 57.4922 63.9922 57.3906 62.0625H58.75C58.875 63.2656 59.8906 64.0391 61.3438 64.0391C62.8281 64.0391 63.8828 63.1562 63.8828 61.9219C63.8828 60.6172 62.8906 59.8047 61.2891 59.8047H59.8594ZM76.8203 65.2656C73.7578 65.2656 71.8438 63 71.8438 59.3672C71.8438 55.7266 73.75 53.4609 76.8125 53.4609C79.1875 53.4609 81.0391 54.9531 81.375 57.125H79.9453C79.5703 55.6719 78.3672 54.7578 76.8125 54.7578C74.6484 54.7578 73.2891 56.5391 73.2891 59.3672C73.2891 62.1953 74.6484 63.9688 76.8203 63.9688C78.3906 63.9688 79.5859 63.1641 79.9453 61.8594H81.375C81 63.9297 79.2188 65.2656 76.8203 65.2656ZM86.1562 63.9688C87.5391 63.9688 88.5625 63.0625 88.5625 61.8594V61.0859L86.2969 61.2344C85.0156 61.3203 84.4531 61.7656 84.4531 62.6094C84.4531 63.4688 85.1797 63.9688 86.1562 63.9688ZM85.9062 65.1484C84.2734 65.1484 83.0625 64.1797 83.0625 62.6406C83.0625 61.1328 84.1719 60.2656 86.1328 60.1484L88.5625 60V59.2344C88.5625 58.1953 87.9141 57.625 86.6562 57.625C85.6484 57.625 84.9453 58.0078 84.7578 58.6719H83.3984C83.5781 57.3203 84.9062 56.4297 86.7031 56.4297C88.7578 56.4297 89.9062 57.4844 89.9062 59.2344V65H88.625V63.7578H88.5C87.9531 64.6562 87.0312 65.1484 85.9062 65.1484ZM92.3906 65V56.5781H93.6719V57.9062H93.7969C94.2188 56.9766 95.0391 56.4297 96.3281 56.4297C98.2188 56.4297 99.2734 57.5469 99.2734 59.5469V65H97.9297V59.875C97.9297 58.3594 97.2891 57.6406 95.9453 57.6406C94.6016 57.6406 93.7344 58.5391 93.7344 60.0156V65H92.3906ZM104.852 65.1484C102.695 65.1484 101.312 63.4375 101.312 60.7891C101.312 58.1484 102.711 56.4297 104.852 56.4297C106.023 56.4297 107.016 56.9844 107.492 57.9062H107.609V53.2344H108.953V65H107.672V63.6562H107.547C107.016 64.5938 106.016 65.1484 104.852 65.1484ZM105.164 57.6406C103.633 57.6406 102.703 58.8281 102.703 60.7891C102.703 62.7578 103.625 63.9375 105.164 63.9375C106.695 63.9375 107.641 62.7344 107.641 60.7891C107.641 58.8594 106.688 57.6406 105.164 57.6406ZM111.594 65V56.5781H112.938V65H111.594ZM112.266 54.8672C111.75 54.8672 111.328 54.4453 111.328 53.9297C111.328 53.4141 111.75 52.9922 112.266 52.9922C112.781 52.9922 113.203 53.4141 113.203 53.9297C113.203 54.4453 112.781 54.8672 112.266 54.8672ZM118.617 65.1484C116.461 65.1484 115.078 63.4375 115.078 60.7891C115.078 58.1484 116.477 56.4297 118.617 56.4297C119.789 56.4297 120.781 56.9844 121.258 57.9062H121.375V53.2344H122.719V65H121.438V63.6562H121.312C120.781 64.5938 119.781 65.1484 118.617 65.1484ZM118.93 57.6406C117.398 57.6406 116.469 58.8281 116.469 60.7891C116.469 62.7578 117.391 63.9375 118.93 63.9375C120.461 63.9375 121.406 62.7344 121.406 60.7891C121.406 58.8594 120.453 57.6406 118.93 57.6406ZM127.922 63.9688C129.305 63.9688 130.328 63.0625 130.328 61.8594V61.0859L128.062 61.2344C126.781 61.3203 126.219 61.7656 126.219 62.6094C126.219 63.4688 126.945 63.9688 127.922 63.9688ZM127.672 65.1484C126.039 65.1484 124.828 64.1797 124.828 62.6406C124.828 61.1328 125.938 60.2656 127.898 60.1484L130.328 60V59.2344C130.328 58.1953 129.68 57.625 128.422 57.625C127.414 57.625 126.711 58.0078 126.523 58.6719H125.164C125.344 57.3203 126.672 56.4297 128.469 56.4297C130.523 56.4297 131.672 57.4844 131.672 59.2344V65H130.391V63.7578H130.266C129.719 64.6562 128.797 65.1484 127.672 65.1484ZM137.273 65.1484C135.117 65.1484 133.734 63.4375 133.734 60.7891C133.734 58.1484 135.133 56.4297 137.273 56.4297C138.445 56.4297 139.438 56.9844 139.914 57.9062H140.031V53.2344H141.375V65H140.094V63.6562H139.969C139.438 64.5938 138.438 65.1484 137.273 65.1484ZM137.586 57.6406C136.055 57.6406 135.125 58.8281 135.125 60.7891C135.125 62.7578 136.047 63.9375 137.586 63.9375C139.117 63.9375 140.062 62.7344 140.062 60.7891C140.062 58.8594 139.109 57.6406 137.586 57.6406ZM151.617 65.1484C149.461 65.1484 148.078 63.4375 148.078 60.7891C148.078 58.1484 149.477 56.4297 151.617 56.4297C152.789 56.4297 153.781 56.9844 154.258 57.9062H154.375V53.2344H155.719V65H154.438V63.6562H154.312C153.781 64.5938 152.781 65.1484 151.617 65.1484ZM151.93 57.6406C150.398 57.6406 149.469 58.8281 149.469 60.7891C149.469 62.7578 150.391 63.9375 151.93 63.9375C153.461 63.9375 154.406 62.7344 154.406 60.7891C154.406 58.8594 153.453 57.6406 151.93 57.6406ZM161.688 57.6172C160.344 57.6172 159.406 58.6016 159.305 60.0938H163.945C163.914 58.6016 163.023 57.6172 161.688 57.6172ZM163.906 62.8203H165.25C164.844 64.2656 163.547 65.1484 161.703 65.1484C159.367 65.1484 157.906 63.4609 157.906 60.7969C157.906 58.1484 159.391 56.4297 161.703 56.4297C163.977 56.4297 165.359 58.0469 165.359 60.6641V61.1797H159.305V61.2422C159.375 62.9062 160.305 63.9609 161.734 63.9609C162.82 63.9609 163.555 63.5625 163.906 62.8203ZM176.492 65H175.086V54.9922H171.453V53.7266H180.125V54.9922H176.492V65ZM182 65V56.5781H183.344V65H182ZM182.672 54.8672C182.156 54.8672 181.734 54.4453 181.734 53.9297C181.734 53.4141 182.156 52.9922 182.672 52.9922C183.188 52.9922 183.609 53.4141 183.609 53.9297C183.609 54.4453 183.188 54.8672 182.672 54.8672ZM189.266 57.6172C187.922 57.6172 186.984 58.6016 186.883 60.0938H191.523C191.492 58.6016 190.602 57.6172 189.266 57.6172ZM191.484 62.8203H192.828C192.422 64.2656 191.125 65.1484 189.281 65.1484C186.945 65.1484 185.484 63.4609 185.484 60.7969C185.484 58.1484 186.969 56.4297 189.281 56.4297C191.555 56.4297 192.938 58.0469 192.938 60.6641V61.1797H186.883V61.2422C186.953 62.9062 187.883 63.9609 189.312 63.9609C190.398 63.9609 191.133 63.5625 191.484 62.8203ZM195.047 65V56.5781H196.328V57.9062H196.453C196.875 56.9766 197.695 56.4297 198.984 56.4297C200.875 56.4297 201.93 57.5469 201.93 59.5469V65H200.586V59.875C200.586 58.3594 199.945 57.6406 198.602 57.6406C197.258 57.6406 196.391 58.5391 196.391 60.0156V65H195.047ZM207.508 65.1484C205.352 65.1484 203.969 63.4375 203.969 60.7891C203.969 58.1484 205.367 56.4297 207.508 56.4297C208.68 56.4297 209.672 56.9844 210.148 57.9062H210.266V53.2344H211.609V65H210.328V63.6562H210.203C209.672 64.5938 208.672 65.1484 207.508 65.1484ZM207.82 57.6406C206.289 57.6406 205.359 58.8281 205.359 60.7891C205.359 62.7578 206.281 63.9375 207.82 63.9375C209.352 63.9375 210.297 62.7344 210.297 60.7891C210.297 58.8594 209.344 57.6406 207.82 57.6406ZM216.812 63.9688C218.195 63.9688 219.219 63.0625 219.219 61.8594V61.0859L216.953 61.2344C215.672 61.3203 215.109 61.7656 215.109 62.6094C215.109 63.4688 215.836 63.9688 216.812 63.9688ZM216.562 65.1484C214.93 65.1484 213.719 64.1797 213.719 62.6406C213.719 61.1328 214.828 60.2656 216.789 60.1484L219.219 60V59.2344C219.219 58.1953 218.57 57.625 217.312 57.625C216.305 57.625 215.602 58.0078 215.414 58.6719H214.055C214.234 57.3203 215.562 56.4297 217.359 56.4297C219.414 56.4297 220.562 57.4844 220.562 59.2344V65H219.281V63.7578H219.156C218.609 64.6562 217.688 65.1484 216.562 65.1484ZM222.852 58.8828C222.852 57.4844 224.203 56.4297 225.992 56.4297C227.758 56.4297 228.984 57.3047 229.164 58.6875H227.836C227.656 58.0156 227 57.5703 225.984 57.5703C224.984 57.5703 224.203 58.0781 224.203 58.8281C224.203 59.4062 224.672 59.7656 225.664 60.0078L226.961 60.3203C228.547 60.7031 229.312 61.3906 229.312 62.6016C229.312 64.1094 227.852 65.1484 225.938 65.1484C224.062 65.1484 222.773 64.25 222.625 62.8516H224.008C224.234 63.5625 224.906 64.0156 225.984 64.0156C227.117 64.0156 227.93 63.4766 227.93 62.7031C227.93 62.125 227.492 61.7344 226.594 61.5156L225.148 61.1641C223.57 60.7812 222.852 60.1016 222.852 58.8828ZM29.3672 80.4297C31.5156 80.4297 32.9062 82.1406 32.9062 84.7891C32.9062 87.4219 31.5078 89.1484 29.3672 89.1484C28.1641 89.1484 27.1953 88.625 26.7344 87.7344H26.6094V91.8125H25.2656V80.5781H26.5469V81.9844H26.6719C27.2109 81.0156 28.2188 80.4297 29.3672 80.4297ZM29.0469 87.9375C30.5938 87.9375 31.5156 86.7578 31.5156 84.7891C31.5156 82.8203 30.5938 81.6406 29.0547 81.6406C27.5312 81.6406 26.5703 82.8516 26.5703 84.7891C26.5703 86.7188 27.5312 87.9375 29.0469 87.9375ZM38.4766 89.1484C36.0781 89.1484 34.5938 87.4922 34.5938 84.7891C34.5938 82.0781 36.0781 80.4297 38.4766 80.4297C40.875 80.4297 42.3594 82.0781 42.3594 84.7891C42.3594 87.4922 40.875 89.1484 38.4766 89.1484ZM38.4766 87.9375C40.0703 87.9375 40.9688 86.7812 40.9688 84.7891C40.9688 82.7891 40.0703 81.6406 38.4766 81.6406C36.8828 81.6406 35.9844 82.7891 35.9844 84.7891C35.9844 86.7812 36.8828 87.9375 38.4766 87.9375ZM44.4688 89V80.5781H45.75V81.8281H45.875C46.125 81.0078 47.0938 80.4297 48.2109 80.4297C48.4297 80.4297 48.7109 80.4453 48.8828 80.4688V81.8125C48.7734 81.7812 48.2891 81.7344 48.0234 81.7344C46.7422 81.7344 45.8125 82.5938 45.8125 83.7812V89H44.4688ZM56.6562 89H55.25V77.7266H56.6562V89ZM59.3594 89V80.5781H60.6406V81.9062H60.7656C61.1875 80.9766 62.0078 80.4297 63.2969 80.4297C65.1875 80.4297 66.2422 81.5469 66.2422 83.5469V89H64.8984V83.875C64.8984 82.3594 64.2578 81.6406 62.9141 81.6406C61.5703 81.6406 60.7031 82.5391 60.7031 84.0156V89H59.3594ZM71.8203 89.1484C69.6641 89.1484 68.2812 87.4375 68.2812 84.7891C68.2812 82.1484 69.6797 80.4297 71.8203 80.4297C72.9922 80.4297 73.9844 80.9844 74.4609 81.9062H74.5781V77.2344H75.9219V89H74.6406V87.6562H74.5156C73.9844 88.5938 72.9844 89.1484 71.8203 89.1484ZM72.1328 81.6406C70.6016 81.6406 69.6719 82.8281 69.6719 84.7891C69.6719 86.7578 70.5938 87.9375 72.1328 87.9375C73.6641 87.9375 74.6094 86.7344 74.6094 84.7891C74.6094 82.8594 73.6562 81.6406 72.1328 81.6406ZM85.3438 80.5781V89H84.0625V87.6797H83.9375C83.5156 88.6172 82.6172 89.1484 81.3281 89.1484C79.4375 89.1484 78.4531 88.0234 78.4531 86.0312V80.5781H79.7969V85.7031C79.7969 87.2188 80.3594 87.9219 81.7031 87.9219C83.1875 87.9219 84 87.0391 84 85.5625V80.5781H85.3438ZM87.6797 82.8828C87.6797 81.4844 89.0312 80.4297 90.8203 80.4297C92.5859 80.4297 93.8125 81.3047 93.9922 82.6875H92.6641C92.4844 82.0156 91.8281 81.5703 90.8125 81.5703C89.8125 81.5703 89.0312 82.0781 89.0312 82.8281C89.0312 83.4062 89.5 83.7656 90.4922 84.0078L91.7891 84.3203C93.375 84.7031 94.1406 85.3906 94.1406 86.6016C94.1406 88.1094 92.6797 89.1484 90.7656 89.1484C88.8906 89.1484 87.6016 88.25 87.4531 86.8516H88.8359C89.0625 87.5625 89.7344 88.0156 90.8125 88.0156C91.9453 88.0156 92.7578 87.4766 92.7578 86.7031C92.7578 86.125 92.3203 85.7344 91.4219 85.5156L89.9766 85.1641C88.3984 84.7812 87.6797 84.1016 87.6797 82.8828ZM96.7344 78.3984H98.0781V80.5781H99.9531V81.7031H98.0781V86.4688C98.0781 87.4609 98.4531 87.8828 99.3281 87.8828C99.5703 87.8828 99.7031 87.875 99.9531 87.8516V88.9844C99.6875 89.0312 99.4297 89.0625 99.1641 89.0625C97.4297 89.0625 96.7344 88.4219 96.7344 86.8125V81.7031H95.375V80.5781H96.7344V78.3984ZM101.984 89V80.5781H103.266V81.8281H103.391C103.641 81.0078 104.609 80.4297 105.727 80.4297C105.945 80.4297 106.227 80.4453 106.398 80.4688V81.8125C106.289 81.7812 105.805 81.7344 105.539 81.7344C104.258 81.7344 103.328 82.5938 103.328 83.7812V89H101.984ZM108.109 89V80.5781H109.453V89H108.109ZM108.781 78.8672C108.266 78.8672 107.844 78.4453 107.844 77.9297C107.844 77.4141 108.266 76.9922 108.781 76.9922C109.297 76.9922 109.719 77.4141 109.719 77.9297C109.719 78.4453 109.297 78.8672 108.781 78.8672ZM114.609 87.9688C115.992 87.9688 117.016 87.0625 117.016 85.8594V85.0859L114.75 85.2344C113.469 85.3203 112.906 85.7656 112.906 86.6094C112.906 87.4688 113.633 87.9688 114.609 87.9688ZM114.359 89.1484C112.727 89.1484 111.516 88.1797 111.516 86.6406C111.516 85.1328 112.625 84.2656 114.586 84.1484L117.016 84V83.2344C117.016 82.1953 116.367 81.625 115.109 81.625C114.102 81.625 113.398 82.0078 113.211 82.6719H111.852C112.031 81.3203 113.359 80.4297 115.156 80.4297C117.211 80.4297 118.359 81.4844 118.359 83.2344V89H117.078V87.7578H116.953C116.406 88.6562 115.484 89.1484 114.359 89.1484Z" fill="#00001F"/>
<rect x="225" y="133" width="12" height="12" fill="#FF5A4F"/>
<path d="M252.295 143L256.092 135.57V135.488H251.568V134.545H257.164V135.523L253.402 143H252.295ZM258.383 144.799H257.492L260.598 134.176H261.488L258.383 144.799ZM264.453 143V135.717H264.359L262.209 137.275V136.162L264.459 134.545H265.508V143H264.453ZM269.762 139.104V138.201H270.787C271.748 138.201 272.428 137.58 272.428 136.701C272.428 135.84 271.777 135.266 270.805 135.266C269.832 135.266 269.193 135.805 269.105 136.713H268.08C268.186 135.248 269.234 134.346 270.846 134.346C272.322 134.346 273.5 135.33 273.5 136.561C273.5 137.568 272.943 138.307 272.018 138.529V138.623C273.166 138.77 273.863 139.566 273.863 140.721C273.863 142.115 272.557 143.199 270.887 143.199C269.17 143.199 267.986 142.244 267.91 140.797H268.93C269.023 141.699 269.785 142.279 270.875 142.279C271.988 142.279 272.779 141.617 272.779 140.691C272.779 139.713 272.035 139.104 270.834 139.104H269.762ZM278.398 143.199C276.494 143.199 275.398 141.582 275.398 138.77C275.398 135.98 276.506 134.346 278.398 134.346C280.279 134.346 281.387 135.986 281.387 138.787C281.387 141.594 280.297 143.199 278.398 143.199ZM278.398 142.279C279.646 142.279 280.326 141.037 280.326 138.77C280.326 136.525 279.635 135.271 278.398 135.271C277.162 135.271 276.459 136.537 276.459 138.77C276.459 141.031 277.15 142.279 278.398 142.279Z" fill="#00001F"/>
<rect x="225" y="157" width="12" height="12" fill="#1B1B68"/>
<path d="M254.732 167.199C253.133 167.199 251.984 166.209 251.891 164.75H252.928C253.021 165.664 253.748 166.273 254.744 166.273C255.875 166.273 256.631 165.5 256.631 164.34C256.631 163.18 255.869 162.389 254.762 162.389C253.994 162.389 253.361 162.734 253.016 163.338H252.025L252.488 158.545H257.205V159.488H253.314L253.074 162.201H253.168C253.578 161.721 254.176 161.48 254.955 161.48C256.561 161.48 257.686 162.646 257.686 164.311C257.686 166.027 256.484 167.199 254.732 167.199ZM262.162 167.199C260.562 167.199 259.414 166.209 259.32 164.75H260.357C260.451 165.664 261.178 166.273 262.174 166.273C263.305 166.273 264.061 165.5 264.061 164.34C264.061 163.18 263.299 162.389 262.191 162.389C261.424 162.389 260.791 162.734 260.445 163.338H259.455L259.918 158.545H264.635V159.488H260.744L260.504 162.201H260.598C261.008 161.721 261.605 161.48 262.385 161.48C263.99 161.48 265.115 162.646 265.115 164.311C265.115 166.027 263.914 167.199 262.162 167.199ZM266.75 168.799H265.859L268.965 158.176H269.855L266.75 168.799ZM272.82 167V159.717H272.727L270.576 161.275V160.162L272.826 158.545H273.875V167H272.82ZM278.129 163.104V162.201H279.154C280.115 162.201 280.795 161.58 280.795 160.701C280.795 159.84 280.145 159.266 279.172 159.266C278.199 159.266 277.561 159.805 277.473 160.713H276.447C276.553 159.248 277.602 158.346 279.213 158.346C280.689 158.346 281.867 159.33 281.867 160.561C281.867 161.568 281.311 162.307 280.385 162.529V162.623C281.533 162.77 282.23 163.566 282.23 164.721C282.23 166.115 280.924 167.199 279.254 167.199C277.537 167.199 276.354 166.244 276.277 164.797H277.297C277.391 165.699 278.152 166.279 279.242 166.279C280.355 166.279 281.146 165.617 281.146 164.691C281.146 163.713 280.402 163.104 279.201 163.104H278.129ZM286.766 167.199C284.861 167.199 283.766 165.582 283.766 162.77C283.766 159.98 284.873 158.346 286.766 158.346C288.646 158.346 289.754 159.986 289.754 162.787C289.754 165.594 288.664 167.199 286.766 167.199ZM286.766 166.279C288.014 166.279 288.693 165.037 288.693 162.77C288.693 160.525 288.002 159.271 286.766 159.271C285.529 159.271 284.826 160.537 284.826 162.77C284.826 165.031 285.518 166.279 286.766 166.279Z" fill="#00001F"/>
<rect x="225" y="179" width="12" height="12" fill="#C61131"/>
<path d="M253.965 189V181.717H253.871L251.721 183.275V182.162L253.971 180.545H255.02V189H253.965ZM260.387 189.199C258.482 189.199 257.387 187.582 257.387 184.77C257.387 181.98 258.494 180.346 260.387 180.346C262.268 180.346 263.375 181.986 263.375 184.787C263.375 187.594 262.285 189.199 260.387 189.199ZM260.387 188.279C261.635 188.279 262.314 187.037 262.314 184.77C262.314 182.525 261.623 181.271 260.387 181.271C259.15 181.271 258.447 182.537 258.447 184.77C258.447 187.031 259.139 188.279 260.387 188.279ZM265.051 190.799H264.16L267.266 180.176H268.156L265.051 190.799ZM271.121 189V181.717H271.027L268.877 183.275V182.162L271.127 180.545H272.176V189H271.121ZM276.43 185.104V184.201H277.455C278.416 184.201 279.096 183.58 279.096 182.701C279.096 181.84 278.445 181.266 277.473 181.266C276.5 181.266 275.861 181.805 275.773 182.713H274.748C274.854 181.248 275.902 180.346 277.514 180.346C278.99 180.346 280.168 181.33 280.168 182.561C280.168 183.568 279.611 184.307 278.686 184.529V184.623C279.834 184.77 280.531 185.566 280.531 186.721C280.531 188.115 279.225 189.199 277.555 189.199C275.838 189.199 274.654 188.244 274.578 186.797H275.598C275.691 187.699 276.453 188.279 277.543 188.279C278.656 188.279 279.447 187.617 279.447 186.691C279.447 185.713 278.703 185.104 277.502 185.104H276.43ZM285.066 189.199C283.162 189.199 282.066 187.582 282.066 184.77C282.066 181.98 283.174 180.346 285.066 180.346C286.947 180.346 288.055 181.986 288.055 184.787C288.055 187.594 286.965 189.199 285.066 189.199ZM285.066 188.279C286.314 188.279 286.994 187.037 286.994 184.77C286.994 182.525 286.303 181.271 285.066 181.271C283.83 181.271 283.127 182.537 283.127 184.77C283.127 187.031 283.818 188.279 285.066 188.279Z" fill="#00001F"/>
<rect x="225" y="201" width="12" height="12" fill="#4D2EDB"/>
<path d="M254.732 211.199C253.133 211.199 251.984 210.209 251.891 208.75H252.928C253.021 209.664 253.748 210.273 254.744 210.273C255.875 210.273 256.631 209.5 256.631 208.34C256.631 207.18 255.869 206.389 254.762 206.389C253.994 206.389 253.361 206.734 253.016 207.338H252.025L252.488 202.545H257.205V203.488H253.314L253.074 206.201H253.168C253.578 205.721 254.176 205.48 254.955 205.48C256.561 205.48 257.686 206.646 257.686 208.311C257.686 210.027 256.484 211.199 254.732 211.199ZM262.262 211.199C260.469 211.199 259.215 210.186 259.215 208.738C259.215 207.637 259.912 206.781 260.973 206.582V206.488C260.111 206.254 259.561 205.521 259.561 204.602C259.561 203.283 260.68 202.346 262.262 202.346C263.844 202.346 264.963 203.283 264.963 204.602C264.963 205.527 264.424 206.248 263.551 206.488V206.582C264.611 206.781 265.309 207.637 265.309 208.738C265.309 210.186 264.055 211.199 262.262 211.199ZM262.262 210.297C263.434 210.297 264.242 209.629 264.242 208.662C264.242 207.695 263.434 207.027 262.262 207.027C261.09 207.027 260.281 207.695 260.281 208.662C260.281 209.629 261.09 210.297 262.262 210.297ZM262.262 206.137C263.258 206.137 263.926 205.562 263.926 204.701C263.926 203.828 263.264 203.248 262.262 203.248C261.26 203.248 260.598 203.828 260.598 204.701C260.598 205.562 261.266 206.137 262.262 206.137ZM266.984 212.799H266.094L269.199 202.176H270.09L266.984 212.799ZM273.055 211V203.717H272.961L270.811 205.275V204.162L273.061 202.545H274.109V211H273.055ZM278.363 207.104V206.201H279.389C280.35 206.201 281.029 205.58 281.029 204.701C281.029 203.84 280.379 203.266 279.406 203.266C278.434 203.266 277.795 203.805 277.707 204.713H276.682C276.787 203.248 277.836 202.346 279.447 202.346C280.924 202.346 282.102 203.33 282.102 204.561C282.102 205.568 281.545 206.307 280.619 206.529V206.623C281.768 206.77 282.465 207.566 282.465 208.721C282.465 210.115 281.158 211.199 279.488 211.199C277.771 211.199 276.588 210.244 276.512 208.797H277.531C277.625 209.699 278.387 210.279 279.477 210.279C280.59 210.279 281.381 209.617 281.381 208.691C281.381 207.713 280.637 207.104 279.436 207.104H278.363ZM287 211.199C285.096 211.199 284 209.582 284 206.77C284 203.98 285.107 202.346 287 202.346C288.881 202.346 289.988 203.986 289.988 206.787C289.988 209.594 288.898 211.199 287 211.199ZM287 210.279C288.248 210.279 288.928 209.037 288.928 206.77C288.928 204.525 288.236 203.271 287 203.271C285.764 203.271 285.061 204.537 285.061 206.77C285.061 209.031 285.752 210.279 287 210.279Z" fill="#00001F"/>
<path d="M30.5332 36L29.7598 33.7559H26.5371L25.7578 36H24.4102L27.4629 27.5449H28.875L31.9277 36H30.5332ZM28.1016 29.0801L26.8711 32.6543H29.4258L28.2012 29.0801H28.1016ZM34.6816 36H33.4043V27.5449H34.5879L38.9297 33.5508H39.0234V27.5449H40.3008V36H39.1172L34.7754 29.9941H34.6816V36ZM47.9004 36L47.127 33.7559H43.9043L43.125 36H41.7773L44.8301 27.5449H46.2422L49.2949 36H47.9004ZM45.4688 29.0801L44.2383 32.6543H46.793L45.5684 29.0801H45.4688ZM56.0449 34.793V36H50.7715V27.5449H52.084V34.793H56.0449ZM59.0215 36H57.709V27.5449H59.0215V36ZM60.7441 33.7266H62.0449C62.1562 34.5293 62.9414 35.0391 64.0723 35.0391C65.127 35.0391 65.9004 34.4941 65.9004 33.7441C65.9004 33.0996 65.4082 32.7129 64.2891 32.4492L63.1992 32.1855C61.6699 31.8281 60.9727 31.0898 60.9727 29.8477C60.9727 28.3418 62.2031 27.3398 64.0488 27.3398C65.7656 27.3398 67.0195 28.3418 67.0957 29.7656H65.8184C65.6953 28.9863 65.0156 28.5 64.0312 28.5C62.9941 28.5 62.3027 28.998 62.3027 29.7598C62.3027 30.3633 62.748 30.709 63.8496 30.9668L64.7812 31.1953C66.5156 31.5996 67.2305 32.3027 67.2305 33.5742C67.2305 35.1914 65.9766 36.2051 63.9727 36.2051C62.0977 36.2051 60.8379 35.2383 60.7441 33.7266ZM70.2715 36H68.959V27.5449H70.2715V36ZM71.9941 33.7266H73.2949C73.4062 34.5293 74.1914 35.0391 75.3223 35.0391C76.377 35.0391 77.1504 34.4941 77.1504 33.7441C77.1504 33.0996 76.6582 32.7129 75.5391 32.4492L74.4492 32.1855C72.9199 31.8281 72.2227 31.0898 72.2227 29.8477C72.2227 28.3418 73.4531 27.3398 75.2988 27.3398C77.0156 27.3398 78.2695 28.3418 78.3457 29.7656H77.0684C76.9453 28.9863 76.2656 28.5 75.2812 28.5C74.2441 28.5 73.5527 28.998 73.5527 29.7598C73.5527 30.3633 73.998 30.709 75.0996 30.9668L76.0312 31.1953C77.7656 31.5996 78.4805 32.3027 78.4805 33.5742C78.4805 35.1914 77.2266 36.2051 75.2227 36.2051C73.3477 36.2051 72.0879 35.2383 71.9941 33.7266ZM84.8027 28.6992V31.6582H86.6895C87.7031 31.6582 88.2891 31.1191 88.2891 30.1758C88.2891 29.2559 87.668 28.6992 86.6543 28.6992H84.8027ZM84.8027 32.7773V36H83.4902V27.5449H86.8359C88.541 27.5449 89.6367 28.5586 89.6367 30.1465C89.6367 31.2832 89.0273 32.209 87.9961 32.5605L89.8945 36H88.377L86.6543 32.7773H84.8027ZM92.8418 27.5449V32.9707C92.8418 34.1543 93.6094 34.9746 94.9512 34.9746C96.2988 34.9746 97.0664 34.1543 97.0664 32.9707V27.5449H98.3789V33.0879C98.3789 34.9219 97.0723 36.2051 94.9512 36.2051C92.8301 36.2051 91.5293 34.9219 91.5293 33.0879V27.5449H92.8418ZM101.83 28.6992V31.6582H103.717C104.73 31.6582 105.316 31.1191 105.316 30.1758C105.316 29.2559 104.695 28.6992 103.682 28.6992H101.83ZM101.83 32.7773V36H100.518V27.5449H103.863C105.568 27.5449 106.664 28.5586 106.664 30.1465C106.664 31.2832 106.055 32.209 105.023 32.5605L106.922 36H105.404L103.682 32.7773H101.83ZM114.006 36L113.232 33.7559H110.01L109.23 36H107.883L110.936 27.5449H112.348L115.4 36H114.006ZM111.574 29.0801L110.344 32.6543H112.898L111.674 29.0801H111.574ZM122.15 34.793V36H116.877V27.5449H118.189V34.793H122.15Z" fill="url(#paint0_linear_25_1625)"/>
<path d="M79.3155 287.025C60.6879 279.741 45.139 266.261 35.2868 248.855C25.4346 231.448 21.8808 211.179 25.2238 191.459C28.5667 171.739 38.6023 153.773 53.6407 140.587C68.6791 127.4 87.8019 119.797 107.789 119.059L109.395 162.53C99.401 162.899 89.8396 166.7 82.3203 173.293C74.8011 179.887 69.7834 188.87 68.1119 198.73C66.4404 208.589 68.2173 218.724 73.1434 227.427C78.0695 236.13 85.844 242.871 95.1577 246.513L79.3155 287.025Z" fill="#4D2EDB"/>
<path d="M126.333 291.638C111.461 294.301 96.151 293.045 81.9115 287.993L96.4557 246.997C103.576 249.522 111.23 250.151 118.667 248.819L126.333 291.638Z" fill="#C61131"/>
<path d="M153.258 129.952C168.684 138.524 181.139 151.585 188.969 167.402C196.799 183.218 199.633 201.042 197.096 218.507C194.559 235.972 186.771 252.252 174.764 265.187C162.758 278.122 147.102 287.099 129.874 290.928L120.437 248.464C129.051 246.55 136.879 242.061 142.882 235.593C148.885 229.126 152.78 220.986 154.048 212.253C155.317 203.521 153.899 194.609 149.985 186.701C146.07 178.793 139.842 172.262 132.129 167.976L153.258 129.952Z" fill="#1B1B68"/>
<path d="M111 119C124.683 119 138.172 122.227 150.374 128.42L130.687 167.21C124.586 164.114 117.841 162.5 111 162.5L111 119Z" fill="#FF5A4F"/>
<rect x="225" y="230" width="110" height="8" fill="#E8E6F2"/>
<rect x="225" y="246" width="110" height="8" fill="#E8E6F2"/>
<rect x="225" y="262" width="110" height="8" fill="#E8E6F2"/>
<rect x="225" y="278" width="81" height="8" fill="#E8E6F2"/>
<defs>
<linearGradient id="paint0_linear_25_1625" x1="123" y1="41" x2="51.9522" y2="-13.4636" gradientUnits="userSpaceOnUse">
<stop stop-color="#4D2EDB"/>
<stop offset="1" stop-color="#AB3AE0"/>
</linearGradient>
</defs>
</svg>
