<svg width="32" height="32" viewBox="0 0 32 32" fill="none" xmlns="http://www.w3.org/2000/svg">
<path d="M30.9121 26.9851H30.3477V15.1125C30.3477 14.5117 29.8606 14.0247 29.2598 14.0247H23.9548C23.3539 14.0247 22.8669 14.5117 22.8669 15.1125V26.9851H21.0861V8.5128C21.0861 7.91198 20.5991 7.42492 19.9982 7.42492H14.6931C14.0923 7.42492 13.6053 7.91198 13.6053 8.5128V26.985H11.8246V14.6899C11.8246 14.0891 11.3375 13.602 10.7367 13.602H5.4315C4.83069 13.602 4.34363 14.0891 4.34363 14.6899V26.985H2.17575V3.92711C2.17575 3.3263 1.68869 2.83923 1.08788 2.83923C0.487063 2.83923 0 3.3263 0 3.92711V28.073C0 28.6738 0.487063 29.1609 1.08788 29.1609H30.9121C31.5129 29.1609 32 28.6738 32 28.073C32 27.4722 31.5129 26.9851 30.9121 26.9851ZM9.64875 26.985H6.51937V15.7778H9.64875V26.985ZM18.9103 26.985H15.7809V9.60067H18.9103V26.985ZM28.1719 26.9851H25.0426V16.2004H28.1719V26.9851Z" fill="#AB3AE0"/>
</svg>
