<svg width="32" height="32" viewBox="0 0 32 32" fill="none" xmlns="http://www.w3.org/2000/svg">
<path d="M31.0625 16.9375H0.9375C0.41975 16.9375 0 17.3572 0 17.875C0 18.3928 0.41975 18.8125 0.9375 18.8125H14.2483L7.72 28.6049C7.30556 29.2264 7.75163 30.0625 8.5 30.0625H23.5C24.2471 30.0625 24.6953 29.2276 24.28 28.6049L17.7518 18.8125H31.0625C31.5803 18.8125 32 18.3928 32 17.875C32 17.3572 31.5803 16.9375 31.0625 16.9375ZM21.7483 28.1875H10.2517L16 19.5651L21.7483 28.1875Z" fill="#AB3AE0"/>
<path d="M25.4375 15.0625C29.0561 15.0625 32 12.1186 32 8.5C32 4.88144 29.0561 1.9375 25.4375 1.9375C21.8189 1.9375 18.875 4.88144 18.875 8.5C18.875 12.1186 21.8189 15.0625 25.4375 15.0625ZM25.4375 3.8125C28.0222 3.8125 30.125 5.91531 30.125 8.5C30.125 11.0847 28.0222 13.1875 25.4375 13.1875C22.8528 13.1875 20.75 11.0847 20.75 8.5C20.75 5.91531 22.8528 3.8125 25.4375 3.8125Z" fill="#AB3AE0"/>
<path d="M25.4375 9.4375H27.3125C27.8303 9.4375 28.25 9.01775 28.25 8.5C28.25 7.98225 27.8303 7.5625 27.3125 7.5625H26.375V6.625C26.375 6.10725 25.9553 5.6875 25.4375 5.6875C24.9197 5.6875 24.5 6.10725 24.5 6.625V8.5C24.5 9.01775 24.9197 9.4375 25.4375 9.4375Z" fill="#AB3AE0"/>
<path d="M9.4375 4.75C9.4375 3.19919 8.17581 1.9375 6.625 1.9375C5.07419 1.9375 3.8125 3.19919 3.8125 4.75C3.8125 6.30081 5.07419 7.5625 6.625 7.5625C8.17581 7.5625 9.4375 6.30081 9.4375 4.75ZM6.625 5.6875C6.10806 5.6875 5.6875 5.26694 5.6875 4.75C5.6875 4.23306 6.10806 3.8125 6.625 3.8125C7.14194 3.8125 7.5625 4.23306 7.5625 4.75C7.5625 5.26694 7.14194 5.6875 6.625 5.6875Z" fill="#AB3AE0"/>
<path d="M2.875 15.0625H10.375C10.8928 15.0625 11.3125 14.6428 11.3125 14.125V12.25C11.3125 9.66531 9.20969 7.5625 6.625 7.5625C4.04031 7.5625 1.9375 9.66531 1.9375 12.25V14.125C1.9375 14.6428 2.35725 15.0625 2.875 15.0625ZM3.8125 12.25C3.8125 10.6992 5.07419 9.4375 6.625 9.4375C8.17581 9.4375 9.4375 10.6992 9.4375 12.25V13.1875H3.8125V12.25Z" fill="#AB3AE0"/>
</svg>
