<svg width="151" height="30" viewBox="0 0 151 30" fill="none" xmlns="http://www.w3.org/2000/svg">
<path d="M39.7788 27.3153V4.65087H47.4369C49.215 4.65087 50.6684 4.9718 51.7972 5.61367C52.9333 6.24815 53.7744 7.10766 54.3204 8.19219C54.8663 9.27672 55.1393 10.4867 55.1393 11.822C55.1393 13.1574 54.8663 14.3711 54.3204 15.463C53.7818 16.5549 52.9481 17.4254 51.8193 18.0747C50.6905 18.7165 49.2445 19.0375 47.4812 19.0375H41.9921V16.6028H47.3927C48.61 16.6028 49.5875 16.3926 50.3253 15.972C51.0631 15.5515 51.598 14.9834 51.93 14.2678C52.2693 13.5447 52.439 12.7295 52.439 11.822C52.439 10.9146 52.2693 10.103 51.93 9.38738C51.598 8.67174 51.0594 8.11103 50.3142 7.70526C49.5691 7.2921 48.5805 7.08553 47.3484 7.08553H42.5233V27.3153H39.7788ZM59.9869 6.59354V27.3153H57.599V6.59354H59.9869ZM72.8725 20.9612V11.774H75.2604V27.3153H72.8725V24.6846H72.7106C72.3464 25.4738 71.7798 26.145 71.0108 26.6981C70.2418 27.2445 69.2705 27.5177 68.0968 27.5177C67.1255 27.5177 66.2621 27.3052 65.5066 26.8802C64.7511 26.4485 64.1575 25.801 63.7258 24.9376C63.2941 24.0674 63.0782 22.9713 63.0782 21.6492V11.774H65.4661V21.4873C65.4661 22.6205 65.7831 23.5244 66.4172 24.1989C67.058 24.8735 67.8742 25.2108 68.8658 25.2108C69.4594 25.2108 70.0631 25.059 70.6769 24.7554C71.2975 24.4519 71.8169 23.9865 72.2351 23.3591C72.66 22.7318 72.8725 21.9325 72.8725 20.9612ZM89.3602 15.2546L87.2152 15.8617C87.0803 15.5042 86.8813 15.1568 86.6182 14.8195C86.3619 14.4755 86.0111 14.1922 85.5659 13.9696C85.1207 13.747 84.5507 13.6357 83.856 13.6357C82.9049 13.6357 82.1123 13.8549 81.4782 14.2934C80.8509 14.7251 80.5373 15.2748 80.5373 15.9426C80.5373 16.5362 80.7531 17.005 81.1848 17.349C81.6165 17.693 82.2911 17.9797 83.2084 18.2091L85.5153 18.7757C86.9049 19.1129 87.9403 19.629 88.6216 20.3237C89.3029 21.0118 89.6435 21.8988 89.6435 22.9848C89.6435 23.8752 89.3872 24.6711 88.8745 25.3726C88.3686 26.0742 87.6604 26.6273 86.7497 27.032C85.8391 27.4367 84.7801 27.6391 83.5727 27.6391C81.9875 27.6391 80.6755 27.2951 79.6367 26.607C78.598 25.919 77.9403 24.914 77.6637 23.5919L79.9302 23.0253C80.146 23.8617 80.5541 24.489 81.1545 24.9072C81.7615 25.3254 82.5541 25.5345 83.5322 25.5345C84.6452 25.5345 85.5288 25.2984 86.1831 24.8263C86.8442 24.3473 87.1747 23.774 87.1747 23.1062C87.1747 22.5666 86.9858 22.1146 86.6081 21.7504C86.2303 21.3794 85.6502 21.1028 84.8678 20.9207L82.2776 20.3136C80.8543 19.9763 79.8088 19.4536 79.141 18.7453C78.4799 18.0303 78.1494 17.1365 78.1494 16.064C78.1494 15.1871 78.3956 14.4114 78.888 13.7369C79.3872 13.0623 80.0651 12.5328 80.9217 12.1483C81.7851 11.7639 82.7632 11.5716 83.856 11.5716C85.3939 11.5716 86.6013 11.9089 87.4782 12.5834C88.3619 13.258 88.9892 14.1483 89.3602 15.2546ZM98.7146 11.774V13.7976H90.6607V11.774H98.7146ZM93.0081 8.05054H95.3959V22.8634C95.3959 23.5379 95.4937 24.0438 95.6893 24.3811C95.8917 24.7116 96.148 24.9342 96.4583 25.0489C96.7753 25.1568 97.1092 25.2108 97.46 25.2108C97.7231 25.2108 97.9389 25.1973 98.1076 25.1703C98.2762 25.1366 98.4111 25.1096 98.5123 25.0893L98.9979 27.2344C98.8361 27.2951 98.6101 27.3558 98.32 27.4165C98.03 27.4839 97.6624 27.5177 97.2172 27.5177C96.5426 27.5177 95.8816 27.3726 95.234 27.0826C94.5932 26.7925 94.0603 26.3507 93.6354 25.7571C93.2172 25.1635 93.0081 24.4148 93.0081 23.5109V8.05054ZM107.373 27.6391C105.876 27.6391 104.584 27.3086 103.498 26.6475C102.419 25.9797 101.586 25.0489 100.999 23.8549C100.419 22.6543 100.129 21.258 100.129 19.6661C100.129 18.0742 100.419 16.6711 100.999 15.457C101.586 14.236 102.402 13.2849 103.448 12.6037C104.5 11.9156 105.728 11.5716 107.131 11.5716C107.94 11.5716 108.739 11.7065 109.529 11.9763C110.318 12.2462 111.036 12.6846 111.684 13.2917C112.331 13.892 112.847 14.688 113.232 15.6795C113.616 16.6711 113.809 17.892 113.809 19.3423V20.3541H101.829V18.29H111.38C111.38 17.4131 111.205 16.6306 110.854 15.9426C110.51 15.2546 110.018 14.7116 109.377 14.3136C108.743 13.9156 107.994 13.7166 107.131 13.7166C106.18 13.7166 105.357 13.9527 104.662 14.4249C103.974 14.8903 103.444 15.4974 103.073 16.2462C102.702 16.9949 102.517 17.7976 102.517 18.6543V20.0303C102.517 21.204 102.719 22.1989 103.124 23.0151C103.535 23.8246 104.105 24.4418 104.834 24.8667C105.562 25.285 106.409 25.4941 107.373 25.4941C108.001 25.4941 108.567 25.4064 109.073 25.231C109.586 25.0489 110.028 24.779 110.399 24.4215C110.77 24.0573 111.056 23.6054 111.259 23.0657L113.566 23.7133C113.323 24.4957 112.915 25.1838 112.341 25.7774C111.768 26.3642 111.06 26.8229 110.217 27.1534C109.373 27.4772 108.426 27.6391 107.373 27.6391ZM116.159 27.3153V11.774H118.466V14.1214H118.628C118.911 13.3524 119.424 12.7284 120.166 12.2495C120.908 11.7706 121.744 11.5311 122.675 11.5311C122.85 11.5311 123.069 11.5345 123.332 11.5413C123.596 11.548 123.795 11.5581 123.929 11.5716V14C123.848 13.9797 123.663 13.9494 123.373 13.9089C123.09 13.8617 122.789 13.8381 122.472 13.8381C121.717 13.8381 121.042 13.9966 120.449 14.3136C119.862 14.6239 119.397 15.0556 119.053 15.6087C118.715 16.1551 118.547 16.779 118.547 17.4806V27.3153H116.159ZM125.437 27.4772C124.938 27.4772 124.51 27.2984 124.152 26.9409C123.795 26.5834 123.616 26.1551 123.616 25.6559C123.616 25.1568 123.795 24.7285 124.152 24.371C124.51 24.0134 124.938 23.8347 125.437 23.8347C125.936 23.8347 126.365 24.0134 126.722 24.371C127.08 24.7285 127.259 25.1568 127.259 25.6559C127.259 25.9865 127.174 26.29 127.006 26.5666C126.844 26.8431 126.625 27.0657 126.348 27.2344C126.078 27.3963 125.775 27.4772 125.437 27.4772ZM134.835 27.6796C133.85 27.6796 132.956 27.4941 132.153 27.1231C131.351 26.7453 130.713 26.2023 130.241 25.4941C129.769 24.779 129.533 23.9156 129.533 22.9038C129.533 22.0134 129.708 21.2917 130.059 20.7386C130.41 20.1787 130.879 19.7403 131.465 19.4232C132.052 19.1062 132.7 18.8701 133.408 18.715C134.123 18.5531 134.842 18.4249 135.563 18.3305C136.508 18.2091 137.273 18.118 137.86 18.0573C138.454 17.9898 138.885 17.8785 139.155 17.7234C139.432 17.5683 139.57 17.2984 139.57 16.9139V16.833C139.57 15.8347 139.297 15.059 138.75 14.5059C138.211 13.9527 137.391 13.6762 136.292 13.6762C135.152 13.6762 134.258 13.9258 133.61 14.4249C132.963 14.9241 132.508 15.4569 132.245 16.0236L129.978 15.2141C130.383 14.2698 130.922 13.5345 131.597 13.0084C132.278 12.4755 133.02 12.1045 133.823 11.8954C134.632 11.6795 135.428 11.5716 136.211 11.5716C136.71 11.5716 137.283 11.6323 137.931 11.7537C138.585 11.8684 139.216 12.1079 139.823 12.4721C140.437 12.8364 140.946 13.3861 141.351 14.1214C141.756 14.8566 141.958 15.8414 141.958 17.0758V27.3153H139.57V25.2108H139.449C139.287 25.548 139.017 25.9089 138.639 26.2934C138.261 26.6779 137.759 27.005 137.132 27.2748C136.504 27.5447 135.739 27.6796 134.835 27.6796ZM135.199 25.5345C136.143 25.5345 136.939 25.349 137.587 24.978C138.241 24.607 138.734 24.1281 139.064 23.5413C139.401 22.9544 139.57 22.3372 139.57 21.6897V19.5042C139.469 19.6256 139.246 19.7369 138.902 19.8381C138.565 19.9325 138.174 20.0168 137.729 20.091C137.29 20.1585 136.862 20.2192 136.444 20.2731C136.032 20.3204 135.698 20.3608 135.442 20.3946C134.821 20.4755 134.241 20.607 133.702 20.7892C133.169 20.9645 132.737 21.231 132.406 21.5885C132.083 21.9392 131.921 22.4182 131.921 23.0253C131.921 23.8549 132.228 24.4823 132.842 24.9072C133.462 25.3254 134.248 25.5345 135.199 25.5345ZM145.034 27.3153V11.774H147.422V27.3153H145.034ZM146.248 9.18376C145.783 9.18376 145.381 9.02524 145.044 8.70821C144.714 8.39118 144.548 8.01006 144.548 7.56487C144.548 7.11968 144.714 6.73856 145.044 6.42153C145.381 6.1045 145.783 5.94598 146.248 5.94598C146.714 5.94598 147.112 6.1045 147.442 6.42153C147.779 6.73856 147.948 7.11968 147.948 7.56487C147.948 8.01006 147.779 8.39118 147.442 8.70821C147.112 9.02524 146.714 9.18376 146.248 9.18376Z" fill="#00001F"/>
<path fill-rule="evenodd" clip-rule="evenodd" d="M16.0662 0.79236C17.0339 0.647496 18.0532 0.914938 18.8226 1.52225C19.5286 2.0635 20.014 2.87777 20.1703 3.75412C20.3583 4.76021 20.0767 5.83316 19.4485 6.63548C18.8932 7.36538 18.0548 7.86922 17.1489 8.00851C15.8726 8.22421 14.7153 9.02654 14.0498 10.1377C13.6104 10.8755 13.5913 11.8363 13.9768 12.6004C14.4432 13.5762 15.5062 14.2249 16.5857 14.1764C16.793 14.1665 17.0027 14.171 17.2128 14.1755C17.6991 14.186 18.1872 14.1964 18.6497 14.0291C19.3771 13.7991 19.8982 13.2141 20.3242 12.6091C20.9841 11.8299 21.9891 11.3547 23.01 11.3499C23.9849 11.334 24.9661 11.7217 25.6475 12.4261C26.3971 13.1687 26.7913 14.2536 26.6913 15.3058C26.6745 15.5945 26.5986 15.8714 26.5227 16.1484L26.5227 16.1484C26.4594 16.3793 26.3961 16.6103 26.3669 16.8484C26.1869 18.1068 26.5763 19.4233 27.3822 20.3984C28.0731 21.2437 29.0742 21.8255 30.1498 22.0014C31.1389 22.1662 32.0638 22.7433 32.5992 23.6013C33.1497 24.4514 33.3235 25.5347 33.0657 26.5161C32.815 27.4959 32.1352 28.3564 31.2413 28.8244C30.2759 29.3402 29.075 29.3824 28.0763 28.9358C27.268 28.584 26.5985 27.9242 26.2352 27.1194C25.8442 26.2869 25.814 25.3078 26.0948 24.4379C26.3986 23.4644 26.3376 22.3883 25.9576 21.4451C25.3913 20.0171 24.0928 18.8495 22.5571 18.6162C21.7131 18.4921 20.9167 18.0662 20.3575 17.4183C20.2604 17.3078 20.1744 17.1885 20.0884 17.0692C19.9862 16.9274 19.884 16.7857 19.7634 16.659C19.2541 16.1217 18.5212 15.8073 17.7819 15.8113C16.9855 15.8105 16.1891 15.8105 15.3919 15.8113C14.5027 15.8113 13.6373 16.2833 13.136 17.018C12.6165 17.8028 11.7907 18.383 10.8666 18.5693C9.75135 18.8152 8.53137 18.4865 7.6866 17.716C6.81961 16.9479 6.36509 15.7428 6.50232 14.5911C6.64351 13.3231 7.50019 12.1666 8.66543 11.658C8.94757 11.5246 9.2501 11.4611 9.55275 11.3975C9.79721 11.3462 10.0417 11.2949 10.2757 11.2067C11.4806 10.7888 12.484 9.83284 12.9671 8.65005C13.3843 7.67978 13.4549 6.56226 13.14 5.55219C12.8846 4.77215 12.8877 3.90615 13.1812 3.13725C13.6215 1.90431 14.7693 0.964287 16.0662 0.79236ZM2.89081 22.0269C3.71655 21.8558 4.60337 21.9728 5.34582 22.3787C6.45712 22.9637 7.22337 24.1608 7.267 25.4224C7.32332 26.4086 6.94813 27.406 6.26596 28.116C5.61472 28.8037 4.68904 29.2247 3.74193 29.2422C2.71551 29.2852 1.6867 28.8482 0.98867 28.0953C0.216074 27.285 -0.140875 26.1038 0.0510837 24.999C0.272392 23.5472 1.45508 22.3102 2.89081 22.0269ZM18.2801 22.3668C17.5115 21.9545 16.5921 21.8494 15.7458 22.0484C14.7281 22.2896 13.8341 22.9972 13.3582 23.93C12.929 24.7491 12.8418 25.7353 13.1004 26.622C13.3367 27.4378 13.8706 28.159 14.5726 28.6326C15.5094 29.2677 16.7484 29.4237 17.8113 29.0353C18.6989 28.7201 19.4509 28.0451 19.861 27.1943C20.2893 26.3251 20.3448 25.2808 20.0133 24.3702C19.7158 23.5138 19.0789 22.7878 18.2801 22.3668Z" fill="url(#paint0_linear_35_620)"/>
<defs>
<linearGradient id="paint0_linear_35_620" x1="16.5914" y1="0.753784" x2="16.5914" y2="29.2462" gradientUnits="userSpaceOnUse">
<stop stop-color="#4D2EDB"/>
<stop offset="1" stop-color="#AB3AE0"/>
</linearGradient>
</defs>
</svg>
