<svg width="34" height="30" viewBox="0 0 34 30" fill="none" xmlns="http://www.w3.org/2000/svg">
<path fill-rule="evenodd" clip-rule="evenodd" d="M16.0662 0.79236C17.0339 0.647496 18.0532 0.914938 18.8226 1.52225C19.5286 2.0635 20.014 2.87777 20.1703 3.75412C20.3583 4.76021 20.0767 5.83316 19.4485 6.63548C18.8932 7.36538 18.0548 7.86922 17.1489 8.00851C15.8726 8.22421 14.7153 9.02654 14.0498 10.1377C13.6104 10.8755 13.5913 11.8363 13.9768 12.6004C14.4432 13.5762 15.5062 14.2249 16.5857 14.1764C16.793 14.1665 17.0027 14.171 17.2128 14.1755C17.6991 14.186 18.1872 14.1964 18.6497 14.0291C19.3771 13.7991 19.8982 13.2141 20.3242 12.6091C20.9841 11.8299 21.9891 11.3547 23.01 11.3499C23.9849 11.334 24.9661 11.7217 25.6475 12.4261C26.3971 13.1687 26.7913 14.2536 26.6913 15.3058C26.6745 15.5945 26.5986 15.8714 26.5227 16.1484L26.5227 16.1484C26.4594 16.3793 26.3961 16.6103 26.3669 16.8484C26.1869 18.1068 26.5763 19.4233 27.3822 20.3984C28.0731 21.2437 29.0742 21.8255 30.1498 22.0014C31.1389 22.1662 32.0638 22.7433 32.5992 23.6013C33.1497 24.4514 33.3235 25.5347 33.0657 26.5161C32.815 27.4959 32.1352 28.3564 31.2413 28.8244C30.2759 29.3402 29.075 29.3824 28.0763 28.9358C27.268 28.584 26.5985 27.9242 26.2352 27.1194C25.8442 26.2869 25.814 25.3078 26.0948 24.4379C26.3986 23.4644 26.3376 22.3883 25.9576 21.4451C25.3913 20.0171 24.0928 18.8495 22.5571 18.6162C21.7131 18.4921 20.9167 18.0662 20.3575 17.4183C20.2604 17.3078 20.1744 17.1885 20.0884 17.0692C19.9862 16.9274 19.884 16.7857 19.7634 16.659C19.2541 16.1217 18.5212 15.8073 17.7819 15.8113C16.9855 15.8105 16.1891 15.8105 15.3919 15.8113C14.5027 15.8113 13.6373 16.2833 13.136 17.018C12.6165 17.8028 11.7907 18.383 10.8666 18.5693C9.75135 18.8152 8.53137 18.4865 7.6866 17.716C6.81961 16.9479 6.36509 15.7428 6.50232 14.5911C6.64351 13.3231 7.50019 12.1666 8.66543 11.658C8.94757 11.5246 9.2501 11.4611 9.55275 11.3975C9.79721 11.3462 10.0417 11.2949 10.2757 11.2067C11.4806 10.7888 12.484 9.83284 12.9671 8.65005C13.3843 7.67978 13.4549 6.56226 13.14 5.55219C12.8846 4.77215 12.8877 3.90615 13.1812 3.13725C13.6215 1.90431 14.7693 0.964287 16.0662 0.79236ZM2.89081 22.0269C3.71655 21.8558 4.60337 21.9728 5.34582 22.3787C6.45712 22.9637 7.22337 24.1608 7.267 25.4224C7.32332 26.4086 6.94813 27.406 6.26596 28.116C5.61472 28.8037 4.68904 29.2247 3.74193 29.2422C2.71551 29.2852 1.6867 28.8482 0.98867 28.0953C0.216074 27.285 -0.140875 26.1038 0.0510837 24.999C0.272392 23.5472 1.45508 22.3102 2.89081 22.0269ZM18.2801 22.3668C17.5115 21.9545 16.5921 21.8494 15.7458 22.0484C14.7281 22.2896 13.8341 22.9972 13.3582 23.93C12.929 24.7491 12.8418 25.7353 13.1004 26.622C13.3367 27.4378 13.8706 28.159 14.5726 28.6326C15.5094 29.2677 16.7484 29.4237 17.8113 29.0353C18.6989 28.7201 19.4509 28.0451 19.861 27.1943C20.2893 26.3251 20.3448 25.2808 20.0133 24.3702C19.7158 23.5138 19.0789 22.7878 18.2801 22.3668Z" fill="url(#paint0_linear_35_622)"/>
<defs>
<linearGradient id="paint0_linear_35_622" x1="16.5914" y1="0.753784" x2="16.5914" y2="29.2462" gradientUnits="userSpaceOnUse">
<stop stop-color="#4D2EDB"/>
<stop offset="1" stop-color="#AB3AE0"/>
</linearGradient>
</defs>
</svg>
