<svg width="177" height="31" viewBox="0 0 177 31" fill="none" xmlns="http://www.w3.org/2000/svg">
<path d="M170.799 24.8165C170.234 24.187 169.756 23.4846 169.376 22.7279C168.775 21.5418 167.944 20.4888 166.933 19.631C165.922 18.7732 164.751 18.1278 163.488 17.7331C162.384 17.3893 161.229 17.2433 160.075 17.3019C160.915 17.2536 161.742 17.5267 162.391 18.0668C163.039 18.6067 163.461 19.3736 163.572 20.2137C163.875 22.0289 164.674 23.7233 165.879 25.1076C167.083 26.492 168.646 27.5118 170.393 28.0531C172.39 28.6714 174.531 28.638 176.508 27.9579C174.305 27.596 172.291 26.4879 170.799 24.8165Z" fill="#00001F"/>
<path d="M156.637 17.1226C156.894 18.2433 157.346 19.3109 157.973 20.2774C157.515 19.5756 157.339 18.7291 157.479 17.9047C157.619 17.0803 158.066 16.338 158.73 15.8242C160.141 14.6657 161.2 13.1412 161.79 11.4204C162.38 9.69957 162.476 7.85009 162.07 6.07792C161.605 4.05059 160.504 2.22222 158.925 0.856689C159.711 2.94303 159.756 5.23335 159.053 7.34869C158.783 8.14729 158.409 8.9071 157.939 9.60846C157.218 10.7102 156.727 11.9444 156.495 13.2378C156.263 14.5313 156.294 15.8579 156.587 17.1392L156.637 17.1226Z" fill="#00001F"/>
<path d="M161.558 21.0247C161.185 21.7786 160.545 22.3614 159.766 22.656C158.988 22.9507 158.128 22.9354 157.361 22.6133C155.668 21.9691 153.833 21.8155 152.06 22.1699C150.287 22.5243 148.645 23.3726 147.319 24.6201C145.808 26.0489 144.781 27.9286 144.389 29.9881C145.796 28.2533 147.743 27.0577 149.909 26.5989C150.723 26.4297 151.554 26.3642 152.384 26.4038C153.685 26.4723 154.987 26.2753 156.212 25.8244C157.437 25.3734 158.561 24.6778 159.517 23.7783C160.354 22.9889 161.048 22.057 161.569 21.0247H161.558Z" fill="#00001F"/>
<path d="M0.635986 29.8564H5.35199V18.3724C5.35199 17.1004 5.69999 16.0804 6.39599 15.3124C7.09199 14.5444 8.00399 14.1604 9.13199 14.1604C10.284 14.1604 11.196 14.5444 11.868 15.3124C12.564 16.0564 12.912 17.0764 12.912 18.3724V29.8564H17.628V18.3724C17.628 17.1004 17.976 16.0804 18.672 15.3124C19.368 14.5444 20.28 14.1604 21.408 14.1604C22.56 14.1604 23.472 14.5444 24.144 15.3124C24.84 16.0564 25.188 17.0764 25.188 18.3724V29.8564H29.904V17.2564C29.904 15.7924 29.58 14.5084 28.932 13.4044C28.308 12.2764 27.456 11.4004 26.376 10.7764C25.296 10.1524 24.06 9.84038 22.668 9.84038C21.372 9.84038 20.196 10.1044 19.14 10.6324C18.108 11.1604 17.256 11.9524 16.584 13.0084C16.008 12.0484 15.18 11.2804 14.1 10.7044C13.044 10.1284 11.856 9.84038 10.536 9.84038C9.31199 9.84038 8.21999 10.0804 7.25999 10.5604C6.29999 11.0404 5.56799 11.7604 5.06399 12.7204V10.2724H0.635986V29.8564Z" fill="#00001F"/>
<path d="M39.8338 30.2884C42.3778 30.2884 44.4178 29.4484 45.9538 27.7684V29.8564H50.4178V16.8244C50.4178 15.4564 50.0698 14.2444 49.3738 13.1884C48.6778 12.1324 47.7178 11.3164 46.4938 10.7404C45.2938 10.1404 43.8898 9.84038 42.2818 9.84038C40.3138 9.84038 38.5618 10.3084 37.0258 11.2444C35.4898 12.1804 34.4338 13.4164 33.8578 14.9524L37.7098 16.8244C38.0698 15.9364 38.6338 15.2284 39.4018 14.7004C40.1698 14.1484 41.0698 13.8724 42.1018 13.8724C43.1818 13.8724 44.0458 14.1604 44.6938 14.7364C45.3658 15.2884 45.7018 15.9844 45.7018 16.8244V17.4724L39.8698 18.4084C37.5658 18.7924 35.8618 19.5244 34.7578 20.6044C33.6538 21.6844 33.1018 23.0404 33.1018 24.6724C33.1018 26.4004 33.7138 27.7684 34.9378 28.7764C36.1618 29.7844 37.7938 30.2884 39.8338 30.2884ZM37.9978 24.4924C37.9978 23.1244 38.9218 22.2604 40.7698 21.9004L45.7018 21.0724V21.8644C45.7018 23.2084 45.2338 24.3484 44.2978 25.2844C43.3858 26.2204 42.1858 26.6884 40.6978 26.6884C39.9058 26.6884 39.2578 26.4964 38.7538 26.1124C38.2498 25.7044 37.9978 25.1644 37.9978 24.4924Z" fill="#00001F"/>
<path d="M54.7766 29.8564H59.4926V18.9484C59.4926 17.4604 59.9006 16.3084 60.7166 15.4924C61.5566 14.6524 62.6366 14.2324 63.9566 14.2324H65.6486V10.0564H64.4966C63.2966 10.0564 62.2406 10.2724 61.3286 10.7044C60.4166 11.1364 59.7086 11.9164 59.2046 13.0444V10.2724H54.7766V29.8564Z" fill="#00001F"/>
<path d="M77.6968 30.0724C78.4888 30.0724 79.2688 30.0124 80.0368 29.8924V25.8244C79.5808 25.8964 79.1608 25.9324 78.7768 25.9324C77.6248 25.9324 76.7848 25.6684 76.2568 25.1404C75.7288 24.6124 75.4648 23.8564 75.4648 22.8724V14.4844H79.9648V10.2724H75.4648V5.80838H70.7488V7.32038C70.7488 8.28038 70.4848 9.01238 69.9568 9.51638C69.4288 10.0204 68.6848 10.2724 67.7248 10.2724H67.3648V14.4844H70.7488V23.1244C70.7488 25.3084 71.3488 27.0124 72.5488 28.2364C73.7728 29.4604 75.4888 30.0724 77.6968 30.0724Z" fill="#00001F"/>
<path d="M83.6399 8.07638H88.3559V3.03638H83.6399V8.07638ZM83.6399 29.8564H88.3559V10.2724H83.6399V29.8564Z" fill="#00001F"/>
<path d="M92.7102 29.8564H97.4262V18.3724C97.4262 17.1004 97.7862 16.0804 98.5062 15.3124C99.2502 14.5444 100.21 14.1604 101.386 14.1604C102.562 14.1604 103.51 14.5444 104.23 15.3124C104.974 16.0564 105.346 17.0764 105.346 18.3724V29.8564H110.062V17.2564C110.062 15.7924 109.75 14.5084 109.126 13.4044C108.502 12.2764 107.626 11.4004 106.498 10.7764C105.394 10.1524 104.122 9.84038 102.682 9.84038C101.458 9.84038 100.354 10.0804 99.3702 10.5604C98.4102 11.0404 97.6662 11.7484 97.1382 12.6844V10.2724H92.7102V29.8564Z" fill="#00001F"/>
<path d="M123.626 30.2884C125.522 30.2884 127.25 29.8564 128.81 28.9924C130.37 28.1044 131.618 26.8924 132.554 25.3564C133.49 23.7964 133.958 22.0324 133.958 20.0644C133.958 18.0964 133.49 16.3444 132.554 14.8084C131.642 13.2724 130.406 12.0604 128.846 11.1724C127.286 10.2844 125.546 9.84038 123.626 9.84038C121.682 9.84038 119.93 10.2844 118.37 11.1724C116.81 12.0604 115.562 13.2724 114.626 14.8084C113.714 16.3444 113.258 18.0964 113.258 20.0644C113.258 22.0324 113.714 23.7844 114.626 25.3204C115.562 26.8564 116.81 28.0684 118.37 28.9564C119.954 29.8444 121.706 30.2884 123.626 30.2884ZM123.626 25.9684C122.57 25.9684 121.622 25.7164 120.782 25.2124C119.966 24.7084 119.318 24.0124 118.838 23.1244C118.382 22.2124 118.154 21.1924 118.154 20.0644C118.154 18.9364 118.382 17.9284 118.838 17.0404C119.318 16.1524 119.966 15.4564 120.782 14.9524C121.622 14.4244 122.57 14.1604 123.626 14.1604C124.682 14.1604 125.606 14.4244 126.398 14.9524C127.214 15.4564 127.85 16.1524 128.306 17.0404C128.786 17.9284 129.026 18.9364 129.026 20.0644C129.026 21.1924 128.786 22.2124 128.306 23.1244C127.85 24.0124 127.214 24.7084 126.398 25.2124C125.606 25.7164 124.682 25.9684 123.626 25.9684Z" fill="#00001F"/>
</svg>
