<svg width="159" height="37" viewBox="0 0 159 37" fill="none" xmlns="http://www.w3.org/2000/svg">
<path d="M35.688 32.9886C34.9214 32.9886 34.4001 32.6206 34.1241 31.8846C33.8787 31.1486 33.756 30.4126 33.756 29.6766C33.756 27.0392 35.1667 23.2519 37.9881 18.3146C39.7974 15.2172 42.5881 11.0466 46.3601 5.80257C42.2814 6.17057 37.0067 9.39057 30.5361 15.4626C25.384 20.3386 21.7194 24.5246 19.542 28.0206C18.806 29.1552 18.438 29.9679 18.438 30.4586C18.438 30.6732 18.4994 30.8112 18.6221 30.8726C18.7754 30.9339 18.852 30.9646 18.852 30.9646C18.852 31.0259 18.5607 31.2559 17.9781 31.6546C17.5487 31.8999 17.012 32.0226 16.368 32.0226C15.08 32.0226 14.528 31.7312 14.712 31.1486C15.1414 29.7992 16.5674 27.3152 18.99 23.6966C22.1487 19.0046 24.2034 15.7999 25.1541 14.0826C27.2394 10.3412 28.282 7.3819 28.282 5.20457C28.282 3.67124 27.8987 2.61324 27.1321 2.03057C26.3961 1.4479 25.3534 1.15657 24.004 1.15657C20.3547 1.15657 16.4754 2.8279 12.366 6.17057C10.6794 7.55057 9.11538 9.0839 7.67405 10.7706C6.23272 12.4266 5.06738 14.1439 4.17805 15.9226C3.28872 17.7012 2.84405 19.4492 2.84405 21.1666C2.84405 24.1106 4.20872 25.6132 6.93805 25.6746C10.7407 25.7666 13.608 24.4939 15.5401 21.8566C16.276 20.8446 16.644 19.8939 16.644 19.0046C16.644 18.4832 16.4754 18.1306 16.138 17.9466C16.1074 17.9159 16.092 17.8699 16.092 17.8086C16.092 17.6859 16.184 17.6246 16.368 17.6246C17.1654 17.6246 17.5641 18.1459 17.5641 19.1886C17.5641 19.8326 17.3034 20.6452 16.782 21.6266C15.9234 23.0986 14.6507 24.2639 12.964 25.1226C11.2774 25.9812 9.52938 26.4106 7.72005 26.4106C5.72672 26.4106 4.13205 25.8126 2.93605 24.6166C1.74005 23.4206 1.14205 21.8106 1.14205 19.7866C1.14205 15.0026 4.42338 9.97324 10.986 4.69857C12.09 3.80924 13.4394 3.0119 15.034 2.30657C16.6287 1.60124 18.2694 1.04924 19.956 0.650568C21.6734 0.251903 23.2527 0.0525706 24.694 0.0525706C26.5034 0.0525706 27.9294 0.405237 28.9721 1.11057C30.0454 1.78524 30.582 2.9659 30.582 4.65257C30.582 6.8299 29.6927 9.71257 27.9141 13.3006C27.5154 14.0979 27.0094 15.0179 26.396 16.0606C25.7827 17.1032 25.062 18.2532 24.234 19.5106C25.1847 18.3146 26.7334 16.7966 28.88 14.9566C32.744 11.7059 36.3167 9.0379 39.5981 6.95257C42.8794 4.83657 45.8694 3.2879 48.568 2.30657C48.8441 2.1839 49.1507 2.12257 49.4881 2.12257C50.6534 2.12257 51.3894 2.7819 51.6961 4.10057C51.8494 4.6219 51.1134 5.71057 49.4881 7.36657C45.6547 11.2919 42.3427 15.6772 39.552 20.5226C37.0067 24.9999 35.734 28.2506 35.734 30.2746C35.734 31.1332 36.0254 31.5626 36.6081 31.5626C36.9761 31.5626 37.8961 31.2406 39.3681 30.5966C40.6561 30.0139 41.4994 29.6766 41.8981 29.5846C42.0514 29.6459 42.1281 29.7226 42.1281 29.8146C42.1281 30.2746 41.3154 30.9186 39.6901 31.7466C38.0954 32.5746 36.7614 32.9886 35.688 32.9886ZM46.6731 28.8026C45.9371 28.8026 45.2011 28.5419 44.4651 28.0206C43.7291 27.4992 43.3151 26.8859 43.2231 26.1806C42.9164 23.8192 44.4037 21.0132 47.6851 17.7626C50.9357 14.5119 53.8644 12.8866 56.4711 12.8866C57.1764 12.8866 57.7284 13.0552 58.1271 13.3926C58.3417 13.6072 58.4951 13.8986 58.5871 14.2666C58.7097 14.6346 58.8017 14.8186 58.8631 14.8186C58.9857 14.8186 59.0931 14.8032 59.1851 14.7726C59.2771 14.7112 59.3844 14.6806 59.5071 14.6806C59.8751 14.6806 60.1971 14.8186 60.4731 15.0946C60.7491 15.3706 60.9024 15.6159 60.9331 15.8306C60.9637 15.8919 59.9824 17.4099 57.9891 20.3846C55.9957 23.2979 55.0911 25.2759 55.2751 26.3186C55.4284 27.0239 55.7657 27.3766 56.2871 27.3766C57.8817 27.3766 60.7951 24.7392 65.0271 19.4646C65.1191 19.3419 65.2111 19.2806 65.3031 19.2806C65.4564 19.2806 65.5331 19.3879 65.5331 19.6026C65.5331 19.8479 65.3951 20.1546 65.1191 20.5226C61.2244 25.7666 58.2344 28.3886 56.1491 28.3886C55.8731 28.3886 55.6124 28.3426 55.3671 28.2506C54.0177 27.7292 53.3431 26.7172 53.3431 25.2146C53.3431 24.6932 53.4044 24.1719 53.5271 23.6506L50.6751 26.4106C49.8164 27.2692 49.0344 27.8826 48.3291 28.2506C47.6544 28.6186 47.1024 28.8026 46.6731 28.8026ZM46.2591 27.7906C48.0377 27.7906 50.4604 25.8432 53.5271 21.9486L58.4031 15.2326C58.1577 14.8032 57.7591 14.5886 57.2071 14.5886C55.3364 14.5886 52.8064 16.0912 49.6171 19.0966C46.3051 22.1632 44.8177 24.6932 45.1551 26.6866C45.3084 27.4226 45.6764 27.7906 46.2591 27.7906ZM65.4001 28.8486C64.4188 28.8486 63.6368 28.6186 63.0541 28.1586C62.5021 27.6679 62.2261 26.8092 62.2261 25.5826C62.2261 24.8772 62.4408 23.9879 62.8701 22.9146C63.2994 21.8106 63.8361 20.6299 64.4801 19.3726C65.1241 18.1152 65.7681 16.8732 66.4121 15.6466C66.0134 15.7386 65.6608 15.7846 65.3541 15.7846C64.4341 15.7846 63.9741 15.4319 63.9741 14.7266C63.9741 14.3892 64.0968 14.1286 64.3421 13.9446C64.6181 13.7606 64.8634 13.6532 65.0781 13.6226C65.0781 13.6226 65.1088 13.6226 65.1701 13.6226C65.2621 13.6226 65.3694 13.6072 65.4921 13.5766H68.1601C68.7121 12.8712 69.2794 12.1199 69.8621 11.3226C70.6901 10.2799 71.3494 9.66657 71.8401 9.48257H71.9781C72.1928 9.48257 72.4994 9.5899 72.8981 9.80457C73.3888 10.0806 73.6341 10.3566 73.6341 10.6326C73.6341 11.0312 72.8981 12.0586 71.4261 13.7146C71.7021 13.7452 72.1008 13.7606 72.6221 13.7606C73.1434 13.7606 73.7874 13.7606 74.5541 13.7606C74.9221 13.7606 75.4434 13.7606 76.1181 13.7606C76.8234 13.7606 77.5441 13.7606 78.2801 13.7606C79.0468 13.7299 79.7061 13.7146 80.2581 13.7146C80.8101 13.6839 81.1168 13.6686 81.1781 13.6686C81.2701 13.6992 81.3161 13.7452 81.3161 13.8066C81.3161 14.0826 79.5068 14.4506 75.8881 14.9106C73.8334 15.1866 72.2541 15.4012 71.1501 15.5546C70.0768 15.7079 69.4941 15.7999 69.4021 15.8306C68.9728 16.1986 68.4514 16.8272 67.8381 17.7166C67.2248 18.6059 66.6114 19.6026 65.9981 20.7066C65.3848 21.8106 64.8634 22.8686 64.4341 23.8806C64.0354 24.8619 63.8361 25.6286 63.8361 26.1806C63.8361 26.6712 64.0201 27.0852 64.3881 27.4226C64.7561 27.7292 65.3541 27.8826 66.1821 27.8826C66.7341 27.8826 67.3934 27.7599 68.1601 27.5146C68.9268 27.2692 69.6474 26.9932 70.3221 26.6866C71.0274 26.3492 71.5334 26.0886 71.8401 25.9046C72.6374 25.4139 73.5114 24.7699 74.4621 23.9726C75.4434 23.1446 76.4094 22.2092 77.3601 21.1666C77.7894 20.7372 78.0808 20.5226 78.2341 20.5226C78.3261 20.5226 78.3721 20.5839 78.3721 20.7066C78.3721 20.9519 78.1421 21.3506 77.6821 21.9026C76.9461 22.7919 76.1181 23.6506 75.1981 24.4786C74.3088 25.2759 73.3121 26.0119 72.2081 26.6866C70.9508 27.4532 69.7394 28.0052 68.5741 28.3426C67.4394 28.6799 66.3814 28.8486 65.4001 28.8486ZM85.5883 28.8026C84.2697 28.8026 83.365 28.4652 82.8743 27.7906C82.3837 27.0852 82.1383 26.1499 82.1383 24.9846C82.1383 23.6966 82.537 22.1632 83.3343 20.3846C83.641 19.6792 83.963 19.0506 84.3003 18.4986C84.6377 17.9159 84.9903 17.3792 85.3583 16.8886C85.2357 16.9192 85.1283 16.9346 85.0363 16.9346C84.9443 16.9346 84.8523 16.9346 84.7603 16.9346C84.0243 16.9346 83.411 16.4132 82.9203 15.3706L79.5163 19.7866C77.707 22.1479 76.603 23.3286 76.2043 23.3286C76.051 23.3286 75.9743 23.2672 75.9743 23.1446C75.9743 22.9912 76.051 22.7919 76.2043 22.5466C76.2963 22.3626 76.4803 22.1172 76.7563 21.8106C77.9217 20.4612 78.995 19.1272 79.9763 17.8086C80.9577 16.4899 81.7703 15.2019 82.4143 13.9446C83.1197 11.2766 84.009 9.94257 85.0823 9.94257C85.7877 9.94257 86.1403 10.2646 86.1403 10.9086C86.1403 11.4912 85.757 12.2579 84.9903 13.2086C84.2543 14.1592 83.8863 14.6499 83.8863 14.6806C83.8863 15.3246 84.3617 15.6466 85.3123 15.6466C85.8643 15.6466 86.4777 15.4472 87.1523 15.0486L88.3483 14.3126C88.4097 14.2819 88.5017 14.2666 88.6243 14.2666C88.9923 14.2666 89.3143 14.4199 89.5903 14.7266C89.8663 15.0332 89.9583 15.3092 89.8663 15.5546L86.6923 19.5566C84.7297 22.0712 83.7483 24.0952 83.7483 25.6286C83.7483 27.0086 84.423 27.6986 85.7723 27.6986C86.6923 27.6986 87.6737 27.4226 88.7163 26.8706C89.7897 26.3186 90.817 25.6439 91.7983 24.8466C92.8103 24.0186 93.6537 23.2212 94.3283 22.4546L95.4323 21.1666C95.4937 21.1052 95.5703 21.0286 95.6623 20.9366C95.7543 20.8446 95.831 20.7986 95.8923 20.7986C96.107 20.7986 96.2143 20.9059 96.2143 21.1206C96.2143 21.1819 96.1837 21.2892 96.1223 21.4426C96.061 21.5959 95.9537 21.7646 95.8003 21.9486L94.3283 23.6046C93.623 24.4019 92.749 25.2146 91.7063 26.0426C90.6943 26.8399 89.6363 27.4992 88.5323 28.0206C87.459 28.5419 86.4777 28.8026 85.5883 28.8026ZM96.2859 28.6646C95.5192 28.6646 94.9212 28.3119 94.4919 27.6066C94.0625 26.8706 93.8479 26.1652 93.8479 25.4906C93.8479 23.6506 95.1819 21.0746 97.8499 17.7626C100.549 14.4199 102.726 12.7486 104.382 12.7486C105.946 12.7486 106.728 13.5766 106.728 15.2326C106.728 15.4779 106.697 15.7386 106.636 16.0146C106.605 16.2906 106.559 16.5819 106.498 16.8886C106.559 16.9806 106.713 17.0266 106.958 17.0266C107.786 17.0266 108.767 16.7352 109.902 16.1526C109.871 16.6739 108.66 17.4252 106.268 18.4066C106.605 19.4186 105.593 21.3506 103.232 24.2026C100.809 27.1772 98.7392 28.6646 97.0219 28.6646H96.2859ZM97.1139 27.2846C98.4325 27.2846 100.119 26.0732 102.174 23.6506C104.167 21.2892 105.164 19.5872 105.164 18.5446C104.673 18.2686 104.06 17.5632 103.324 16.4286C102.281 16.4286 100.779 17.6859 98.8159 20.2006C96.8839 22.6539 95.9485 24.5399 96.0099 25.8586C96.0405 26.8092 96.4085 27.2846 97.1139 27.2846ZM118.101 28.6646C117.365 28.6646 116.997 28.2506 116.997 27.4226C117.335 25.7052 118.025 23.7732 119.067 21.6266C119.558 20.5839 120.049 19.5566 120.539 18.5446C121.061 17.5326 121.567 16.5052 122.057 15.4626C120.923 16.2292 119.788 17.0879 118.653 18.0386C117.519 18.9586 116.415 20.0012 115.341 21.1666C114.084 22.5159 112.627 24.2486 110.971 26.3646C109.775 27.8672 109.085 28.6186 108.901 28.6186C108.472 28.6186 108.119 28.4192 107.843 28.0206C107.567 27.6219 107.429 27.2846 107.429 27.0086C107.429 26.6099 107.782 25.5826 108.487 23.9266C108.702 23.4052 108.917 22.8992 109.131 22.4086C109.377 21.8872 109.607 21.3812 109.821 20.8906L107.061 23.7886C107 23.8499 106.816 24.0339 106.509 24.3406C106.203 24.6472 105.957 24.8006 105.773 24.8006C105.62 24.8006 105.543 24.6932 105.543 24.4786C105.543 24.4172 105.574 24.3406 105.635 24.2486C105.666 24.1259 105.758 23.9879 105.911 23.8346C106.371 23.3746 106.847 22.8839 107.337 22.3626C107.828 21.8412 108.334 21.2432 108.855 20.5686C109.254 20.0472 109.821 19.2806 110.557 18.2686C111.324 17.2259 112.259 15.9226 113.363 14.3586C113.701 13.8986 114.176 13.6686 114.789 13.6686C115.403 13.6686 115.709 13.9599 115.709 14.5426C115.709 14.7572 114.927 16.1832 113.363 18.8206C112.566 20.2312 111.922 21.3812 111.431 22.2706C110.971 23.1599 110.68 23.8192 110.557 24.2486C111.232 23.5126 112.029 22.6846 112.949 21.7646C113.9 20.8446 114.989 19.8172 116.215 18.6826C119.987 15.1866 122.471 13.4386 123.667 13.4386C124.005 13.4386 124.327 13.5459 124.633 13.7606C124.971 13.9752 125.139 14.2512 125.139 14.5886C125.139 14.7419 124.541 15.8612 123.345 17.9466C122.18 20.0626 121.536 21.3199 121.413 21.7186C124.817 18.8666 126.519 17.4252 126.519 17.3946C129.402 15.1559 131.472 14.0366 132.729 14.0366C133.097 14.0366 133.435 14.1592 133.741 14.4046C134.079 14.6192 134.247 14.8799 134.247 15.1866C134.247 15.2479 133.266 16.5359 131.303 19.0506C129.279 21.5959 128.145 23.6812 127.899 25.3066C127.777 26.4106 128.344 26.9626 129.601 26.9626C130.368 26.9626 131.441 26.4719 132.821 25.4906C134.201 24.5092 135.643 23.1599 137.145 21.4426C137.329 21.2279 137.529 21.0286 137.743 20.8446C137.958 20.6299 138.142 20.5226 138.295 20.5226C138.479 20.5226 138.571 20.5992 138.571 20.7526C138.571 20.9672 138.433 21.2126 138.157 21.4886C137.36 22.4392 136.409 23.4206 135.305 24.4326C134.232 25.4446 133.159 26.3032 132.085 27.0086C131.012 27.6832 130.061 28.0206 129.233 28.0206C127.148 28.0206 126.105 27.0546 126.105 25.1226C126.105 24.4479 126.289 23.6659 126.657 22.7766C127.025 21.8566 127.393 21.0286 127.761 20.2926C128.651 18.5752 129.617 17.0572 130.659 15.7386C129.678 16.2292 128.651 16.8732 127.577 17.6706C126.535 18.4679 125.446 19.4032 124.311 20.4766C121.674 23.0526 119.865 25.6592 118.883 28.2966C118.73 28.5419 118.469 28.6646 118.101 28.6646ZM139.347 28.8026C138.611 28.8026 137.875 28.5419 137.139 28.0206C136.403 27.4992 135.989 26.8859 135.897 26.1806C135.59 23.8192 137.078 21.0132 140.359 17.7626C143.61 14.5119 146.538 12.8866 149.145 12.8866C149.85 12.8866 150.402 13.0552 150.801 13.3926C151.016 13.6072 151.169 13.8986 151.261 14.2666C151.384 14.6346 151.476 14.8186 151.537 14.8186C151.66 14.8186 151.767 14.8032 151.859 14.7726C151.951 14.7112 152.058 14.6806 152.181 14.6806C152.549 14.6806 152.871 14.8186 153.147 15.0946C153.423 15.3706 153.576 15.6159 153.607 15.8306C153.638 15.8919 152.656 17.4099 150.663 20.3846C148.67 23.2979 147.765 25.2759 147.949 26.3186C148.102 27.0239 148.44 27.3766 148.961 27.3766C150.556 27.3766 153.469 24.7392 157.701 19.4646C157.793 19.3419 157.885 19.2806 157.977 19.2806C158.13 19.2806 158.207 19.3879 158.207 19.6026C158.207 19.8479 158.069 20.1546 157.793 20.5226C153.898 25.7666 150.908 28.3886 148.823 28.3886C148.547 28.3886 148.286 28.3426 148.041 28.2506C146.692 27.7292 146.017 26.7172 146.017 25.2146C146.017 24.6932 146.078 24.1719 146.201 23.6506L143.349 26.4106C142.49 27.2692 141.708 27.8826 141.003 28.2506C140.328 28.6186 139.776 28.8026 139.347 28.8026ZM138.933 27.7906C140.712 27.7906 143.134 25.8432 146.201 21.9486L151.077 15.2326C150.832 14.8032 150.433 14.5886 149.881 14.5886C148.01 14.5886 145.48 16.0912 142.291 19.0966C138.979 22.1632 137.492 24.6932 137.829 26.6866C137.982 27.4226 138.35 27.7906 138.933 27.7906Z" fill="#00001F"/>
</svg>
