<svg width="188" height="40" viewBox="0 0 188 40" fill="none" xmlns="http://www.w3.org/2000/svg">
<path d="M21.986 6.70345L23.4731 5.21637C26.3933 2.29615 31.1475 2.22387 34.0845 5.12727C35.1974 6.22987 35.937 7.65338 36.1994 9.19786C36.4617 10.7424 36.2336 12.3302 35.5471 13.7384C35.2179 14.4111 35.107 15.1698 35.2297 15.9086C35.3527 16.6474 35.7032 17.3294 36.2325 17.8593C37.2057 16.8838 37.9771 15.7261 38.5027 14.4523C39.0284 13.1786 39.298 11.8137 39.2961 10.4358C39.294 9.05787 39.0207 7.6938 38.4915 6.42156C37.9622 5.1493 37.1874 3.99379 36.2114 3.02104C32.1045 -1.06272 25.4382 -0.981456 21.3428 3.11378L7.16844 17.2877L6.00318 16.1225C3.03343 13.1527 3.0145 8.29837 6.03664 5.38139C7.1553 4.30499 8.5805 3.60231 10.1155 3.37037C11.6506 3.13843 13.2197 3.38865 14.6065 4.08649C15.2394 4.41084 15.9587 4.52687 16.6616 4.41802C17.3644 4.30916 18.0149 3.98098 18.5201 3.48034L18.5562 3.44439C18.5675 3.43322 18.5764 3.41993 18.5825 3.40529C18.5885 3.39066 18.5917 3.37496 18.5917 3.35911C18.5917 3.34326 18.5885 3.32756 18.5825 3.31293C18.5764 3.2983 18.5675 3.28501 18.5562 3.27383C16.6053 1.37194 13.991 0.303651 11.2665 0.295013C8.54191 0.286378 5.92086 1.33807 3.95795 3.22755C-0.270377 7.30941 -0.255268 14.0971 3.90059 18.253L18.0707 32.4231L16.5655 33.9284C13.6453 36.8486 8.8909 36.9209 5.95404 34.0175C4.84115 32.9149 4.10159 31.4913 3.83923 29.9469C3.57688 28.4025 3.80488 26.8146 4.49125 25.4063C4.82054 24.7336 4.93152 23.9749 4.8087 23.2362C4.68587 22.4974 4.33535 21.8153 3.80613 21.2855C2.8329 22.261 2.06142 23.4186 1.53575 24.6923C1.01008 25.9662 0.740519 27.3309 0.742473 28.709C0.744426 30.0869 1.01785 31.451 1.54713 32.7231C2.07642 33.9955 2.85118 35.151 3.82716 36.1237C7.93387 40.2077 14.6004 40.1266 18.6958 36.0312L32.8885 21.8383L34.0582 23.0079C36.9784 25.9281 37.0507 30.6823 34.1473 33.6192C33.0447 34.7322 31.6211 35.4717 30.0767 35.7342C28.5323 35.9965 26.9444 35.7684 25.5361 35.082C24.8632 34.7525 24.1041 34.6414 23.3651 34.7645C22.626 34.8875 21.9438 35.2384 21.4139 35.768C22.3895 36.7413 23.5471 37.5129 24.8208 38.0385C26.0947 38.5642 27.4593 38.8338 28.8374 38.8319C30.2153 38.8298 31.5794 38.5563 32.8516 38.027C34.1239 37.4978 35.2794 36.723 36.2522 35.747C40.3361 31.6403 40.2548 24.9738 36.1596 20.8786L21.986 6.70345ZM20.1867 30.3062L9.28499 19.4045L19.8693 8.82038L30.771 19.7221L20.1867 30.3062Z" fill="#00001F"/>
<path d="M57.3938 32.2148C55.2244 32.2148 53.566 31.5783 52.4186 30.3054C51.2801 29.0325 50.6437 27.2934 50.5092 25.0882L53.9515 24.2276C54.1218 27.6699 55.2692 29.3911 57.3938 29.3911C59.1149 29.3911 59.9755 28.5305 59.9755 26.8093C59.9755 26.2984 59.9038 25.8277 59.7604 25.3975C59.6259 24.9582 59.4152 24.5593 59.1284 24.2007C58.8415 23.8332 58.5816 23.5418 58.3485 23.3267C58.1154 23.1026 57.7972 22.8292 57.3938 22.5065L53.0909 19.0642C52.3021 18.4456 51.6701 17.6613 51.195 16.7111C50.7288 15.7519 50.4958 14.6627 50.4958 13.4436C50.4958 11.6686 51.0471 10.2568 52.1497 9.20794C53.2523 8.15912 54.7135 7.6347 56.5332 7.6347C58.4874 7.6347 60.0383 8.11429 61.1857 9.07347C62.3421 10.0237 63.0547 11.3728 63.3237 13.1209C63.3506 13.3091 63.3819 13.5691 63.4178 13.9007L59.9755 14.7613C59.9665 14.6089 59.9441 14.3803 59.9083 14.0756C59.7559 12.9819 59.4108 12.1079 58.8729 11.4535C58.344 10.7901 57.5641 10.4585 56.5332 10.4585C55.7085 10.4585 55.072 10.6915 54.6238 11.1577C54.1756 11.6149 53.9515 12.2558 53.9515 13.0805C53.9515 14.4341 54.5252 15.5681 55.6726 16.4825L59.9755 19.9248C62.2704 21.7804 63.4178 23.999 63.4178 26.5807C63.4178 28.3467 62.871 29.7272 61.7773 30.7222C60.6926 31.7173 59.2315 32.2148 57.3938 32.2148Z" fill="#00001F"/>
<path d="M70.6116 29.3911C71.517 29.3911 72.3776 29.158 73.1934 28.6918V18.0423C73.1575 18.0243 73.0679 17.9705 72.9244 17.8809C72.781 17.7913 72.6779 17.733 72.6152 17.7061C72.5614 17.6702 72.4672 17.6164 72.3328 17.5447C72.1983 17.473 72.0863 17.4237 71.9966 17.3968C71.9159 17.361 71.8084 17.3251 71.6739 17.2893C71.5484 17.2444 71.4229 17.2131 71.2974 17.1951C71.1809 17.1772 71.0554 17.1682 70.9209 17.1682C70.6341 17.1682 70.3786 17.2355 70.1545 17.3699C69.9393 17.4954 69.76 17.6478 69.6166 17.8271C69.4732 18.0064 69.3477 18.2619 69.2401 18.5936C69.1415 18.9252 69.0698 19.2211 69.025 19.481C68.9801 19.732 68.9443 20.0727 68.9174 20.503C68.8905 20.9243 68.8726 21.2515 68.8636 21.4845C68.8636 21.7176 68.8636 22.0448 68.8636 22.4661C68.8636 22.4841 68.8636 22.4975 68.8636 22.5065C68.8636 22.6589 68.8636 22.9054 68.8636 23.246C68.8636 23.5867 68.8636 23.9139 68.8636 24.2276C68.8636 24.5414 68.8636 24.8372 68.8636 25.1151C68.8726 25.7157 68.8995 26.2446 68.9443 26.7018C68.9981 27.15 69.0832 27.5937 69.1998 28.033C69.3253 28.4632 69.5045 28.7994 69.7376 29.0414C69.9797 29.2745 70.271 29.3911 70.6116 29.3911ZM73.1934 37.1362V30.4264C72.6824 30.9553 72.1535 31.3856 71.6067 31.7173C71.0688 32.049 70.4503 32.2148 69.7511 32.2148C69.0877 32.2148 68.4961 32.049 67.9761 31.7173C67.4652 31.3766 67.0528 30.9419 66.7391 30.413C66.4343 29.8841 66.1788 29.2611 65.9726 28.5439C65.7754 27.8178 65.6365 27.1052 65.5558 26.4059C65.4841 25.7067 65.4482 24.9806 65.4482 24.2276V21.6056C65.4482 20.8257 65.4841 20.113 65.5558 19.4676C65.6275 18.8221 65.7575 18.1857 65.9457 17.5582C66.134 16.9307 66.3805 16.4018 66.6853 15.9715C66.999 15.5322 67.4114 15.1826 67.9223 14.9227C68.4333 14.6537 69.025 14.5193 69.6973 14.5193C70.0827 14.5193 70.4413 14.5731 70.773 14.6806C71.1136 14.7792 71.4364 14.9406 71.7411 15.1647C72.0549 15.3888 72.2969 15.586 72.4672 15.7564C72.6465 15.9177 72.8886 16.1597 73.1934 16.4825V14.7613H76.6356V37.1362H73.1934Z" fill="#00001F"/>
<path d="M81.8529 32.2148C81.0999 32.2148 80.4948 31.9504 80.0376 31.4215C79.5804 30.8836 79.3518 30.2202 79.3518 29.4314V14.7613H82.7941V28.3826C82.7941 28.7411 82.9017 29.0325 83.1168 29.2566C83.3409 29.4807 83.6278 29.5927 83.9774 29.5927C84.1657 29.5927 84.3494 29.5703 84.5287 29.5255C84.708 29.4807 84.8828 29.4045 85.0531 29.2969C85.2324 29.1804 85.3714 29.0907 85.47 29.028C85.5686 28.9563 85.7075 28.8397 85.8868 28.6784C86.0751 28.517 86.1916 28.4184 86.2364 28.3826V14.7613H89.6787V31.9728H86.2364V30.1172C85.8958 30.413 85.6448 30.6281 85.4834 30.7626C85.331 30.8971 85.0935 31.0808 84.7707 31.3139C84.448 31.538 84.1612 31.7038 83.9102 31.8114C83.6681 31.91 83.3633 31.9997 82.9958 32.0803C82.6283 32.17 82.2473 32.2148 81.8529 32.2148Z" fill="#00001F"/>
<path d="M97.397 29.3911C97.639 29.3911 97.8721 29.3193 98.0962 29.1759C98.3292 29.0325 98.504 28.8935 98.6206 28.7591C98.7371 28.6246 98.8805 28.4453 99.0509 28.2212C99.0778 28.1764 99.1002 28.145 99.1181 28.1271V23.367C98.9747 23.4657 98.7371 23.618 98.4054 23.8242C98.0738 24.0304 97.8093 24.2007 97.6121 24.3352C97.4149 24.4607 97.1773 24.64 96.8994 24.873C96.6215 25.0972 96.4064 25.3168 96.254 25.5319C96.1016 25.7381 95.9672 25.9936 95.8506 26.2984C95.7341 26.6032 95.6758 26.9214 95.6758 27.2531C95.6758 28.6784 96.2495 29.3911 97.397 29.3911ZM95.6758 32.2148C94.7166 32.2148 93.9009 31.8024 93.2286 30.9777C92.5652 30.1441 92.2335 29.2073 92.2335 28.1674C92.2335 27.3337 92.3725 26.5763 92.6504 25.895C92.9372 25.2137 93.2375 24.6713 93.5513 24.268C93.865 23.8556 94.3894 23.4343 95.1245 23.004C95.8596 22.5647 96.4154 22.2644 96.7919 22.1031C97.1684 21.9417 97.8228 21.6773 98.755 21.3097C98.9164 21.247 99.0374 21.1977 99.1181 21.1618V19.9248C99.1181 19.0552 98.9971 18.3829 98.755 17.9078C98.513 17.4237 98.0603 17.1817 97.397 17.1817C96.8053 17.1817 96.3795 17.3879 96.1195 17.8002C95.8685 18.2036 95.7251 18.7639 95.6893 19.481C95.6803 19.5796 95.6758 19.7275 95.6758 19.9248H92.2335C92.2514 18.2753 92.7131 16.9621 93.6185 15.9849C94.5239 15.0078 95.7834 14.5193 97.397 14.5193C99.0016 14.5193 100.261 15.0168 101.175 16.0118C102.099 16.9979 102.56 18.3022 102.56 19.9248V27.6699C102.56 29.4628 102.708 30.8971 103.004 31.9728H99.5753L99.1181 29.3911C98.9388 29.7496 98.7909 30.0275 98.6744 30.2247C98.5668 30.4219 98.4054 30.6685 98.1903 30.9643C97.9752 31.2511 97.76 31.4753 97.5449 31.6366C97.3297 31.789 97.0608 31.9235 96.7381 32.04C96.4154 32.1565 96.0613 32.2148 95.6758 32.2148Z" fill="#00001F"/>
<path d="M105.532 31.9728V14.7613H108.974V17.0607C109.324 16.3794 109.83 15.7877 110.494 15.2857C111.166 14.7748 111.91 14.5193 112.726 14.5193C112.753 14.5193 112.937 14.5372 113.277 14.5731V18.3784C112.641 18.1274 112.004 18.0019 111.368 18.0019C110.651 18.0019 110.072 18.2171 109.633 18.6473C109.194 19.0776 108.974 19.6469 108.974 20.355V31.9728H105.532Z" fill="#00001F"/>
<path d="M119.597 32.2148C118.763 32.2148 118.037 32.0714 117.419 31.7845C116.809 31.4977 116.321 31.1256 115.953 30.6685C115.594 30.2023 115.303 29.6107 115.079 28.8935C114.855 28.1674 114.698 27.4458 114.608 26.7287C114.528 26.0025 114.478 25.1599 114.46 24.2007C114.434 23.4477 114.434 22.6947 114.46 21.9417C114.487 21.0453 114.546 20.252 114.635 19.5617C114.734 18.8625 114.9 18.1857 115.133 17.5313C115.366 16.8769 115.666 16.339 116.034 15.9177C116.41 15.4964 116.899 15.1602 117.499 14.9092C118.109 14.6493 118.817 14.5193 119.624 14.5193C120.359 14.5193 121.004 14.6179 121.56 14.8151C122.125 15.0034 122.591 15.2947 122.959 15.6891C123.335 16.0746 123.644 16.5049 123.886 16.98C124.137 17.4551 124.326 18.0333 124.451 18.7146C124.577 19.3869 124.662 20.0503 124.707 20.7046C124.76 21.359 124.787 22.112 124.787 22.9637V23.367H117.903V24.2276C117.903 24.3442 117.903 24.5279 117.903 24.7789C117.885 25.1106 117.88 25.4557 117.889 25.8143C117.907 26.1639 117.925 26.509 117.943 26.8497C117.961 27.1903 118.01 27.5175 118.091 27.8313C118.172 28.136 118.27 28.405 118.387 28.6381C118.503 28.8711 118.665 29.0549 118.871 29.1894C119.086 29.3238 119.337 29.3911 119.624 29.3911C119.982 29.3911 120.278 29.3238 120.511 29.1894C120.744 29.0459 120.915 28.8353 121.022 28.5574C121.139 28.2795 121.22 28.0016 121.264 27.7237C121.309 27.4458 121.336 27.0962 121.345 26.6749V25.9488H124.76V26.6345C124.68 28.4722 124.227 29.8617 123.402 30.8029C122.578 31.7442 121.309 32.2148 119.597 32.2148ZM117.903 21.6459H121.318V20.6105C121.309 20.1533 121.282 19.7544 121.238 19.4138C121.193 19.0731 121.112 18.7325 120.995 18.3919C120.888 18.0512 120.718 17.7913 120.485 17.612C120.251 17.4327 119.965 17.343 119.624 17.343C119.274 17.343 118.979 17.4372 118.736 17.6254C118.503 17.8137 118.329 18.0871 118.212 18.4456C118.104 18.7953 118.028 19.1404 117.983 19.481C117.939 19.8217 117.912 20.2295 117.903 20.7046V21.6459Z" fill="#00001F"/>
<path d="M133.716 32.2148C131.546 32.2148 129.888 31.5783 128.741 30.3054C127.602 29.0325 126.966 27.2934 126.831 25.0882L130.274 24.2276C130.444 27.6699 131.591 29.3911 133.716 29.3911C135.437 29.3911 136.298 28.5305 136.298 26.8093C136.298 26.2984 136.226 25.8277 136.082 25.3975C135.948 24.9582 135.737 24.5593 135.45 24.2007C135.164 23.8332 134.904 23.5418 134.671 23.3267C134.437 23.1026 134.119 22.8292 133.716 22.5065L129.413 19.0642C128.624 18.4456 127.992 17.6613 127.517 16.7111C127.051 15.7519 126.818 14.6627 126.818 13.4436C126.818 11.6686 127.369 10.2568 128.472 9.20794C129.574 8.15912 131.035 7.6347 132.855 7.6347C134.809 7.6347 136.36 8.11429 137.508 9.07347C138.664 10.0237 139.377 11.3728 139.646 13.1209C139.673 13.3091 139.704 13.5691 139.74 13.9007L136.298 14.7613C136.289 14.6089 136.266 14.3803 136.23 14.0756C136.078 12.9819 135.733 12.1079 135.195 11.4535C134.666 10.7901 133.886 10.4585 132.855 10.4585C132.031 10.4585 131.394 10.6915 130.946 11.1577C130.498 11.6149 130.274 12.2558 130.274 13.0805C130.274 14.4341 130.847 15.5681 131.995 16.4825L136.298 19.9248C138.592 21.7804 139.74 23.999 139.74 26.5807C139.74 28.3467 139.193 29.7272 138.099 30.7222C137.015 31.7173 135.553 32.2148 133.716 32.2148Z" fill="#00001F"/>
<path d="M146.88 32.2148C145.526 32.2148 144.54 31.8697 143.922 31.1794C143.312 30.4892 142.998 29.4448 142.98 28.0464V17.343H141.259V14.7613H142.98V8.73731H146.423V14.7613H149.004V17.343H146.423V27.3875C146.423 28.0778 146.517 28.5843 146.705 28.907C146.893 29.2297 147.274 29.3911 147.848 29.3911C148.099 29.3911 148.484 29.3462 149.004 29.2566V32.0534C148.144 32.161 147.436 32.2148 146.88 32.2148Z" fill="#00001F"/>
<path d="M160.219 30.6012C159.421 31.6769 158.099 32.2148 156.252 32.2148C154.405 32.2148 153.083 31.6769 152.285 30.6012C151.488 29.5255 151.089 27.9747 151.089 25.9488V20.7853C151.089 18.7594 151.488 17.2086 152.285 16.1329C153.083 15.0571 154.405 14.5193 156.252 14.5193C158.099 14.5193 159.421 15.0571 160.219 16.1329C161.017 17.2086 161.415 18.7594 161.415 20.7853V25.9488C161.415 27.9747 161.017 29.5255 160.219 30.6012ZM155.607 29.2835C155.795 29.3552 156.01 29.3911 156.252 29.3911C156.494 29.3911 156.705 29.3552 156.884 29.2835C157.072 29.2118 157.225 29.1266 157.341 29.028C157.467 28.9204 157.57 28.768 157.65 28.5708C157.731 28.3646 157.794 28.1854 157.839 28.033C157.884 27.8806 157.915 27.6609 157.933 27.3741C157.951 27.0872 157.96 26.8631 157.96 26.7018C157.969 26.5314 157.973 26.2804 157.973 25.9488V20.7853C157.973 20.4536 157.969 20.2071 157.96 20.0458C157.96 19.8755 157.951 19.6469 157.933 19.36C157.915 19.0731 157.884 18.8535 157.839 18.7011C157.794 18.5487 157.731 18.3739 157.65 18.1767C157.57 17.9705 157.467 17.8181 157.341 17.7195C157.225 17.612 157.072 17.5223 156.884 17.4506C156.705 17.3789 156.494 17.343 156.252 17.343C156.01 17.343 155.795 17.3789 155.607 17.4506C155.427 17.5223 155.275 17.612 155.149 17.7195C155.033 17.8181 154.934 17.9705 154.854 18.1767C154.773 18.3739 154.71 18.5487 154.665 18.7011C154.621 18.8535 154.589 19.0731 154.571 19.36C154.553 19.6469 154.54 19.8755 154.531 20.0458C154.531 20.2071 154.531 20.4536 154.531 20.7853V25.9488C154.531 26.2804 154.531 26.5314 154.531 26.7018C154.54 26.8631 154.553 27.0872 154.571 27.3741C154.589 27.6609 154.621 27.8806 154.665 28.033C154.71 28.1854 154.773 28.3646 154.854 28.5708C154.934 28.768 155.033 28.9204 155.149 29.028C155.275 29.1266 155.427 29.2118 155.607 29.2835Z" fill="#00001F"/>
<path d="M164.239 31.9728V14.7613H167.682V16.6169C168.192 16.1508 168.609 15.7967 168.932 15.5547C169.255 15.3037 169.698 15.0706 170.263 14.8554C170.837 14.6313 171.447 14.5193 172.092 14.5193C172.827 14.5193 173.423 14.7882 173.88 15.3261C174.338 15.8639 174.566 16.5228 174.566 17.3027V31.9728H171.124V19.0642C171.124 18.4636 171.039 18.0288 170.868 17.7599C170.698 17.482 170.353 17.343 169.833 17.343C169.537 17.343 169.241 17.4058 168.945 17.5313C168.659 17.6478 168.443 17.7599 168.3 17.8674C168.157 17.9661 167.95 18.1274 167.682 18.3515V31.9728H164.239Z" fill="#00001F"/>
<path d="M182.446 32.2148C181.612 32.2148 180.886 32.0714 180.267 31.7845C179.658 31.4977 179.169 31.1256 178.802 30.6685C178.443 30.2023 178.152 29.6107 177.928 28.8935C177.704 28.1674 177.547 27.4458 177.457 26.7287C177.376 26.0025 177.327 25.1599 177.309 24.2007C177.282 23.4477 177.282 22.6947 177.309 21.9417C177.336 21.0453 177.394 20.252 177.484 19.5617C177.583 18.8625 177.748 18.1857 177.981 17.5313C178.215 16.8769 178.515 16.339 178.882 15.9177C179.259 15.4964 179.747 15.1602 180.348 14.9092C180.958 14.6493 181.666 14.5193 182.473 14.5193C183.208 14.5193 183.853 14.6179 184.409 14.8151C184.974 15.0034 185.44 15.2947 185.807 15.6891C186.184 16.0746 186.493 16.5049 186.735 16.98C186.986 17.4551 187.174 18.0333 187.3 18.7146C187.425 19.3869 187.511 20.0503 187.555 20.7046C187.609 21.359 187.636 22.112 187.636 22.9637V23.367H180.751V24.2276C180.751 24.3442 180.751 24.5279 180.751 24.7789C180.734 25.1106 180.729 25.4557 180.738 25.8143C180.756 26.1639 180.774 26.509 180.792 26.8497C180.81 27.1903 180.859 27.5175 180.94 27.8313C181.02 28.136 181.119 28.405 181.236 28.6381C181.352 28.8711 181.513 29.0549 181.72 29.1894C181.935 29.3238 182.186 29.3911 182.473 29.3911C182.831 29.3911 183.127 29.3238 183.36 29.1894C183.593 29.0459 183.763 28.8353 183.871 28.5574C183.988 28.2795 184.068 28.0016 184.113 27.7237C184.158 27.4458 184.185 27.0962 184.194 26.6749V25.9488H187.609V26.6345C187.528 28.4722 187.076 29.8617 186.251 30.8029C185.426 31.7442 184.158 32.2148 182.446 32.2148ZM180.751 21.6459H184.167V20.6105C184.158 20.1533 184.131 19.7544 184.086 19.4138C184.041 19.0731 183.961 18.7325 183.844 18.3919C183.737 18.0512 183.566 17.7913 183.333 17.612C183.1 17.4327 182.813 17.343 182.473 17.343C182.123 17.343 181.827 17.4372 181.585 17.6254C181.352 17.8137 181.177 18.0871 181.061 18.4456C180.953 18.7953 180.877 19.1404 180.832 19.481C180.787 19.8217 180.76 20.2295 180.751 20.7046V21.6459Z" fill="#00001F"/>
</svg>
