<svg width="736" height="586" viewBox="0 0 736 586" fill="none" xmlns="http://www.w3.org/2000/svg">
<path opacity="0.08" fill-rule="evenodd" clip-rule="evenodd" d="M356.351 -36.1444C377.816 -39.3575 400.424 -33.4256 417.49 -19.9551C433.148 -7.95003 443.916 10.1106 447.382 29.5483C451.552 51.8636 445.306 75.6619 431.371 93.4577C419.056 109.647 400.459 120.822 380.367 123.912C352.058 128.696 326.389 146.492 311.628 171.138C301.881 187.504 301.459 208.813 310.009 225.761C320.354 247.405 343.93 261.794 367.875 260.717C372.472 260.499 377.124 260.598 381.784 260.698C392.57 260.93 403.396 261.162 413.654 257.451C429.788 252.349 441.347 239.373 450.795 225.955C465.433 208.671 487.724 198.132 510.368 198.026C531.99 197.673 553.754 206.27 568.867 221.895C585.493 238.366 594.237 262.43 592.021 285.769C591.646 292.172 589.964 298.313 588.28 304.457C586.877 309.579 585.473 314.703 584.825 319.983C580.831 347.895 589.47 377.096 607.345 398.723C622.669 417.472 644.872 430.377 668.73 434.279C690.669 437.933 711.184 450.733 723.059 469.765C735.27 488.62 739.123 512.647 733.405 534.416C727.845 556.148 712.767 575.233 692.939 585.614C671.527 597.054 644.89 597.99 622.74 588.085C604.811 580.282 589.962 565.646 581.904 547.798C573.23 529.331 572.562 507.616 578.79 488.32C585.529 466.728 584.174 442.859 575.746 421.938C563.184 390.266 534.383 364.367 500.322 359.194C481.602 356.44 463.938 346.995 451.534 332.624C449.38 330.173 447.473 327.526 445.566 324.881C443.299 321.735 441.032 318.592 438.356 315.782C427.061 303.865 410.804 296.891 394.407 296.979C376.743 296.962 359.078 296.962 341.397 296.979C321.674 296.979 302.479 307.449 291.36 323.744C279.836 341.151 261.521 354.021 241.024 358.152C216.287 363.608 189.228 356.316 170.49 339.227C151.26 322.19 141.179 295.461 144.223 269.915C147.354 241.791 166.356 216.139 192.201 204.858C198.459 201.899 205.169 200.49 211.882 199.081C217.304 197.943 222.728 196.804 227.916 194.848C254.641 185.579 276.898 164.376 287.612 138.141C296.867 116.62 298.432 91.8335 291.448 69.4299C285.782 52.1284 285.853 32.9203 292.363 15.866C302.127 -11.4809 327.585 -32.331 356.351 -36.1444ZM64.1189 434.847C82.4341 431.051 102.104 433.646 118.572 442.65C143.221 455.626 160.216 482.178 161.184 510.161C162.433 532.035 154.111 554.156 138.981 569.904C124.536 585.157 104.004 594.497 82.9971 594.885C60.2307 595.838 37.4115 586.146 21.929 569.445C4.79258 551.473 -3.12465 525.273 1.13305 500.769C6.04173 468.567 32.2741 441.132 64.1189 434.847ZM405.458 442.382C388.409 433.237 368.018 430.907 349.245 435.32C326.672 440.669 306.844 456.364 296.288 477.056C286.77 495.222 284.834 517.096 290.57 536.763C295.813 554.859 307.653 570.854 323.224 581.359C344.002 595.447 371.484 598.907 395.06 590.292C414.747 583.301 431.426 568.33 440.522 549.457C450.023 530.178 451.254 507.015 443.9 486.819C437.302 467.822 423.175 451.721 405.458 442.382Z" fill="white"/>
</svg>
