<svg width="181" height="37" viewBox="0 0 181 37" fill="none" xmlns="http://www.w3.org/2000/svg">
<path d="M7.41477 12.7794L11.8474 10.223L9.37318 5.93984H32.6427L21.0117 26.0923L18.5375 21.8017L14.1049 24.3656L21.0117 36.3256L41.5079 0.819519H0.507935L7.41477 12.7794Z" fill="#00001F"/>
<path d="M59.8975 29.8195L68.7475 8.81952H64.5175L58.2775 24.0595L52.0075 8.81952H47.7775L56.6275 29.8195H59.8975Z" fill="#00001F"/>
<path d="M73.7514 8.81952V29.8195H89.3814V26.0995H77.7714V21.0595H87.5814V17.3395H77.7714V12.5395H89.2314V8.81952H73.7514Z" fill="#00001F"/>
<path d="M95.1498 8.81952V29.8195H99.1698V22.4095H104.06L108.47 29.8195H112.94L108.14 21.7195C110.57 20.6395 112.13 18.3295 112.13 15.5995C112.13 13.6795 111.44 12.0595 110.03 10.7695C108.65 9.47952 106.94 8.81952 104.87 8.81952H95.1498ZM104.87 12.5395C106.64 12.5395 107.93 13.8295 107.93 15.5995C107.93 17.3695 106.64 18.6895 104.87 18.6895H99.1698V12.5395H104.87Z" fill="#00001F"/>
<path d="M123.689 12.5395V29.8195H127.739V12.5395H134.699V8.81952H116.729V12.5395H123.689Z" fill="#00001F"/>
<path d="M140.173 8.81952V29.8195H155.803V26.0995H144.193V21.0595H154.003V17.3395H144.193V12.5395H155.653V8.81952H140.173Z" fill="#00001F"/>
<path d="M167.902 19.1095L160.102 29.8195H164.932L170.302 22.4095L175.672 29.8195H180.472L172.702 19.1095L180.172 8.81952H175.372L170.302 15.8095L165.232 8.81952H160.402L167.902 19.1095Z" fill="#00001F"/>
</svg>
