<svg width="165" height="37" viewBox="0 0 165 37" fill="none" xmlns="http://www.w3.org/2000/svg">
<path d="M31.6372 14.0338L31.6151 14.0117C31.6133 14.0105 31.6118 14.0088 31.6109 14.0069L17.7758 0.171448L3.94085 14.0066C3.93926 14.0082 3.93837 14.0103 3.93676 14.0114L3.91393 14.0335C1.79837 16.1609 0.454625 18.9345 0.0963089 21.9133C-0.262007 24.8921 0.38567 27.9053 1.93637 30.4738C3.48708 33.0423 5.85183 35.0188 8.6547 36.0888C11.4576 37.1589 14.5377 37.2614 17.4055 36.3798C17.6468 36.3061 17.9047 36.3061 18.1461 36.3798C21.0136 37.2611 24.0936 37.1585 26.8963 36.0883C29.699 35.0181 32.0634 33.0418 33.614 30.4734C35.1647 27.9051 35.8124 24.8921 35.4542 21.9135C35.0961 18.9348 33.7525 16.1613 31.6372 14.0338ZM8.86039 23.1572C8.79304 23.2245 8.73963 23.3046 8.70321 23.3925C8.66676 23.4803 8.64801 23.5747 8.64802 23.6699C8.67264 26.1117 9.36273 28.5005 10.644 30.5794C10.6731 30.6265 10.6866 30.6817 10.6824 30.7369C10.6783 30.7921 10.6568 30.8446 10.621 30.887C10.5852 30.9293 10.537 30.9592 10.4832 30.9724C10.4294 30.9856 10.3728 30.9815 10.3215 30.9606C9.35823 30.5554 8.48317 29.9664 7.74524 29.2267C6.23298 27.7141 5.3828 25.6632 5.38143 23.5243C5.38005 21.3854 6.2276 19.3334 7.73794 17.819L17.7758 7.78202L27.8132 17.819C29.3238 19.3332 30.1716 21.3852 30.1702 23.5243C30.169 25.6632 29.3186 27.7141 27.8063 29.2267C27.0683 29.9664 26.1933 30.5554 25.2302 30.9606C25.1788 30.9815 25.1222 30.9856 25.0684 30.9724C25.0146 30.9592 24.9664 30.9291 24.9305 30.887C24.8948 30.8446 24.8731 30.7921 24.869 30.7367C24.8649 30.6815 24.8783 30.6263 24.9074 30.5792C26.189 28.5005 26.8795 26.1117 26.9045 23.6699C26.9045 23.5747 26.8855 23.4803 26.8489 23.3923C26.8123 23.3042 26.7587 23.2244 26.6912 23.157L21.9434 18.1211C21.8961 18.0816 21.8366 18.06 21.775 18.06C21.7135 18.06 21.6539 18.0816 21.6067 18.1211C21.5594 18.1604 21.5276 18.2153 21.5165 18.2758C21.5054 18.3364 21.5159 18.3987 21.5463 18.4523C23.3902 21.7892 21.8046 26.5821 19.1604 29.2267L19.1465 29.2406C18.7815 29.6017 18.2888 29.8041 17.7755 29.8039C17.2621 29.8037 16.7695 29.6009 16.4048 29.2397L16.392 29.2267C13.7468 26.5821 12.162 21.7897 14.0062 18.453C14.0365 18.3994 14.0471 18.3371 14.036 18.2765C14.025 18.216 13.9931 18.1611 13.9459 18.1218C13.8986 18.0824 13.839 18.0607 13.7775 18.0607C13.7159 18.0607 13.6563 18.0824 13.6091 18.1218L8.86039 23.1572Z" fill="#00001F"/>
<path d="M65.6738 11.726H70.2527L65.5031 27.5958H60.2701L58.0518 18.2104L55.805 27.5958H50.5719L45.8224 11.726H50.6857L53.16 22.8747L55.6059 11.726H60.7536L63.1995 22.8747L65.6738 11.726Z" fill="#00001F"/>
<path d="M82.1467 22.5618C82.8483 21.8792 83.199 20.9123 83.199 19.6609C83.199 18.4095 82.8483 17.452 82.1467 16.7884C81.4452 16.1058 80.6394 15.7646 79.7293 15.7646C78.8192 15.7646 78.0134 16.1058 77.3119 16.7884C76.6104 17.471 76.2596 18.438 76.2596 19.6893C76.2596 20.9407 76.6104 21.9077 77.3119 22.5903C78.0134 23.2539 78.8192 23.5857 79.7293 23.5857C80.6394 23.5857 81.4452 23.2444 82.1467 22.5618ZM73.4156 25.5196C72.0125 24.0028 71.311 22.0594 71.311 19.6893C71.311 17.3193 72.0125 15.3759 73.4156 13.8591C74.8186 12.3233 76.525 11.5554 78.5348 11.5554C80.5636 11.5554 82.1183 12.3043 83.199 13.8022V11.726H88.0623V27.5958H83.199V25.2921C82.0235 26.9606 80.4498 27.7948 78.4779 27.7948C76.5061 27.7948 74.8186 27.0364 73.4156 25.5196Z" fill="#00001F"/>
<path d="M90.316 11.726H95.4922L99.1041 23.5288L102.716 11.726H107.892L102.261 27.5958H95.9472L90.316 11.726Z" fill="#00001F"/>
<path d="M116.879 27.7948C114.566 27.7948 112.669 27.0554 111.191 25.5765C109.712 24.0786 108.972 22.0973 108.972 19.6325C108.972 17.1676 109.702 15.2052 111.162 13.7453C112.641 12.2854 114.547 11.5554 116.879 11.5554C119.211 11.5554 121.145 12.2759 122.681 13.7169C124.216 15.1578 124.984 17.1581 124.984 19.7178C124.984 20.2676 124.946 20.7796 124.87 21.2536H113.949C114.044 21.9551 114.357 22.5334 114.888 22.9884C115.419 23.4245 115.988 23.6425 116.594 23.6425C117.22 23.6425 117.684 23.5857 117.988 23.4719C118.291 23.3392 118.509 23.2159 118.642 23.1022C118.794 22.9695 118.983 22.7609 119.211 22.4765H124.472C124.017 24.0692 123.107 25.3585 121.742 26.3444C120.377 27.3114 118.756 27.7948 116.879 27.7948ZM119.922 18.2104C119.846 17.471 119.524 16.8737 118.955 16.4187C118.386 15.9447 117.713 15.7077 116.936 15.7077C116.158 15.7077 115.504 15.9447 114.973 16.4187C114.442 16.8737 114.11 17.471 113.978 18.2104H119.922Z" fill="#00001F"/>
<path d="M132.971 11.726V14.6838C134.109 12.5982 135.626 11.5554 137.522 11.5554V16.504H136.327C135.209 16.504 134.365 16.7695 133.796 17.3003C133.246 17.8312 132.971 18.7603 132.971 20.0875V27.5958H128.108V11.726H132.971Z" fill="#00001F"/>
<path d="M144.598 9.93429C144.049 10.4841 143.376 10.7591 142.579 10.7591C141.783 10.7591 141.11 10.4841 140.56 9.93429C140.01 9.38444 139.735 8.71135 139.735 7.91502C139.735 7.09973 140.01 6.41716 140.56 5.86731C141.11 5.31747 141.783 5.04254 142.579 5.04254C143.376 5.04254 144.049 5.31747 144.598 5.86731C145.148 6.41716 145.423 7.09973 145.423 7.91502C145.423 8.71135 145.148 9.38444 144.598 9.93429ZM140.162 27.5958V11.726H145.025V27.5958H140.162Z" fill="#00001F"/>
<path d="M158.827 22.6187C159.472 21.9361 159.794 20.9502 159.794 19.6609C159.794 18.3716 159.462 17.3951 158.798 16.7315C158.135 16.049 157.348 15.7077 156.438 15.7077C155.528 15.7077 154.741 16.049 154.077 16.7315C153.433 17.3951 153.11 18.3716 153.11 19.6609C153.11 20.9502 153.442 21.9361 154.106 22.6187C154.788 23.3013 155.585 23.6425 156.495 23.6425C157.405 23.6425 158.182 23.3013 158.827 22.6187ZM150.551 25.5481C148.958 24.0502 148.162 22.0783 148.162 19.6325C148.162 17.1866 148.958 15.2337 150.551 13.7737C152.143 12.2948 154.115 11.5554 156.466 11.5554C158.817 11.5554 160.78 12.2948 162.354 13.7737C163.946 15.2337 164.742 17.1866 164.742 19.6325C164.742 22.0783 163.956 24.0502 162.382 25.5481C160.808 27.0459 158.846 27.7948 156.495 27.7948C154.144 27.7948 152.162 27.0459 150.551 25.5481Z" fill="#00001F"/>
</svg>
